<?xml version="1.0" encoding="UTF-8"?>
<svg width="32" height="32" viewBox="0 0 32 32" fill="none" xmlns="http://www.w3.org/2000/svg">
  <path d="M16 30C23.732 30 30 23.732 30 16C30 8.26801 23.732 2 16 2C8.26801 2 2 8.26801 2 16C2 23.732 8.26801 30 16 30Z" fill="#232F3E"/>
  <path d="M16.5 6H14C13.925 6 13.875 6.05 13.875 6.125V6.375C13.875 6.45 13.925 6.5 14 6.5H14.55L13.375 7.675C13.325 7.725 13.325 7.8 13.375 7.85L13.55 8.025C13.6 8.075 13.675 8.075 13.725 8.025L14.9 6.85V7.375C14.9 7.45 14.95 7.5 15.025 7.5H15.275C15.35 7.5 15.4 7.45 15.4 7.375V6.85L16.575 8.025C16.625 8.075 16.7 8.075 16.75 8.025L16.925 7.85C16.975 7.8 16.975 7.725 16.925 7.675L15.75 6.5H16.3C16.375 6.5 16.425 6.45 16.425 6.375V6.125C16.425 6.05 16.375 6 16.3 6H16.5Z" fill="#FF9900"/>
  <path d="M17.5063 12.25H15.9922C15.9297 12.25 15.8828 12.2852 15.8594 12.3379L15 14.5L14.1406 12.3379C14.1172 12.2852 14.0703 12.25 14.0078 12.25H12.4937C12.3953 12.25 12.3203 12.325 12.3203 12.4234V16.5766C12.3203 16.675 12.3953 16.75 12.4937 16.75H13.2578C13.3562 16.75 13.4312 16.675 13.4312 16.5766V14.125L14.1406 16.2871C14.1641 16.3398 14.2109 16.375 14.2734 16.375H15.7266C15.7891 16.375 15.8359 16.3398 15.8594 16.2871L16.5687 14.125V16.5766C16.5687 16.675 16.6437 16.75 16.7422 16.75H17.5063C17.6047 16.75 17.6797 16.675 17.6797 16.5766V12.4234C17.6797 12.325 17.6047 12.25 17.5063 12.25Z" fill="#FF9900"/>
  <path d="M19.9688 14H18.5V12.875C18.5 12.775 18.425 12.7 18.325 12.7H17.575C17.475 12.7 17.4 12.775 17.4 12.875V16.075C17.4 16.175 17.475 16.25 17.575 16.25H18.325C18.425 16.25 18.5 16.175 18.5 16.075V14.95H19.9688V16.075C19.9688 16.175 20.0438 16.25 20.1437 16.25H20.8937C20.9937 16.25 21.0687 16.175 21.0687 16.075V12.875C21.0687 12.775 20.9937 12.7 20.8937 12.7H20.1437C20.0438 12.7 19.9688 12.775 19.9688 12.875V14Z" fill="#FF9900"/>
  <path d="M14.5 18H17C17.075 18 17.125 18.05 17.125 18.125V18.375C17.125 18.45 17.075 18.5 17 18.5H14.5C14.425 18.5 14.375 18.45 14.375 18.375V18.125C14.375 18.05 14.425 18 14.5 18Z" fill="#FF9900"/>
</svg>
