<?xml version="1.0" encoding="UTF-8"?>
<svg width="80" height="40" viewBox="0 0 80 40" fill="none" xmlns="http://www.w3.org/2000/svg">
  <path d="M14 10H66C68.2091 10 70 11.7909 70 14V26C70 28.2091 68.2091 30 66 30H14C11.7909 30 10 28.2091 10 26V14C10 11.7909 11.7909 10 14 10Z" stroke="white" stroke-width="2"/>
  <path d="M17.0909 17.8636V22.1364H18.0682V17.8636H17.0909ZM20.2045 17.8636V22.1364H23.5455V21.2727H21.1818V20.3409H23.2955V19.4773H21.1818V18.7273H23.4773V17.8636H20.2045ZM28.3636 19.3636C28.3636 18.4091 27.5909 17.8636 26.5455 17.8636H24.6591V22.1364H25.6364V20.5H26.0227L27.1136 22.1364H28.2273L26.9773 20.3864C27.7955 20.2273 28.3636 19.8409 28.3636 19.3636ZM26.4773 18.7273C26.9773 18.7273 27.3409 18.9773 27.3409 19.3636C27.3409 19.75 26.9773 20 26.4773 20H25.6364V18.7273H26.4773Z" fill="white"/>
  <path d="M31.3636 22.2273C32.75 22.2273 33.7045 21.2727 33.7045 20C33.7045 18.7273 32.75 17.7727 31.3636 17.7727C29.9773 17.7727 29.0227 18.7273 29.0227 20C29.0227 21.2727 29.9773 22.2273 31.3636 22.2273ZM31.3636 21.3636C30.5455 21.3636 30 20.7727 30 20C30 19.2273 30.5455 18.6364 31.3636 18.6364C32.1818 18.6364 32.7273 19.2273 32.7273 20C32.7273 20.7727 32.1818 21.3636 31.3636 21.3636Z" fill="white"/>
  <path d="M34.5909 17.8636V22.1364H35.5682V20.5H37.6136V22.1364H38.5909V17.8636H37.6136V19.6364H35.5682V17.8636H34.5909Z" fill="white"/>
  <path d="M41.7273 22.1364H42.7045V20.5H43.0909L44.1818 22.1364H45.2955L44.0455 20.3864C44.8636 20.2273 45.4318 19.8409 45.4318 19.3636C45.4318 18.4091 44.6591 17.8636 43.6136 17.8636H41.7273V22.1364ZM43.5455 18.7273C44.0455 18.7273 44.4091 18.9773 44.4091 19.3636C44.4091 19.75 44.0455 20 43.5455 20H42.7045V18.7273H43.5455Z" fill="white"/>
  <path d="M48.3182 22.2273C49.7045 22.2273 50.6591 21.2727 50.6591 20C50.6591 18.7273 49.7045 17.7727 48.3182 17.7727C46.9318 17.7727 45.9773 18.7273 45.9773 20C45.9773 21.2727 46.9318 22.2273 48.3182 22.2273ZM48.3182 21.3636C47.5 21.3636 46.9545 20.7727 46.9545 20C46.9545 19.2273 47.5 18.6364 48.3182 18.6364C49.1364 18.6364 49.6818 19.2273 49.6818 20C49.6818 20.7727 49.1364 21.3636 48.3182 21.3636Z" fill="white"/>
  <path d="M51.5455 17.8636V22.1364H52.5227V20.5H54.5682V22.1364H55.5455V17.8636H54.5682V19.6364H52.5227V17.8636H51.5455Z" fill="white"/>
  <path d="M58.6818 22.1364H59.6591V18.7273H61.0909V17.8636H57.25V18.7273H58.6818V22.1364Z" fill="white"/>
</svg>
