<?xml version="1.0" encoding="UTF-8"?>
<svg width="80" height="40" viewBox="0 0 80 40" fill="none" xmlns="http://www.w3.org/2000/svg">
  <path d="M14 10H66C68.2091 10 70 11.7909 70 14V26C70 28.2091 68.2091 30 66 30H14C11.7909 30 10 28.2091 10 26V14C10 11.7909 11.7909 10 14 10Z" stroke="white" stroke-width="2"/>
  <path d="M17.0909 17.8636V22.1364H18.0682V17.8636H17.0909ZM20.2045 17.8636V22.1364H23.5455V21.2727H21.1818V20.3409H23.2955V19.4773H21.1818V18.7273H23.4773V17.8636H20.2045ZM28.3636 19.3636C28.3636 18.4091 27.5909 17.8636 26.5455 17.8636H24.6591V22.1364H25.6364V20.5H26.0227L27.1136 22.1364H28.2273L26.9773 20.3864C27.7955 20.2273 28.3636 19.8409 28.3636 19.3636ZM26.4773 18.7273C26.9773 18.7273 27.3409 18.9773 27.3409 19.3636C27.3409 19.75 26.9773 20 26.4773 20H25.6364V18.7273H26.4773Z" fill="white"/>
  <path d="M31.3636 22.1364H32.3409L33.7045 17.8636H32.6591L31.8182 20.7955L30.9773 17.8636H30.1364L29.2955 20.7955L28.4545 17.8636H27.4091L28.7727 22.1364H29.75L30.5682 19.3182L31.3636 22.1364Z" fill="white"/>
  <path d="M36.9091 17.8636H35.9318V22.1364H36.9091V17.8636ZM39.0455 17.8636H38.0682V22.1364H39.0455V17.8636ZM41.1818 22.1364H42.1591V20.5H44.2045V22.1364H45.1818V17.8636H44.2045V19.6364H42.1591V17.8636H41.1818V22.1364Z" fill="white"/>
  <path d="M48.3182 22.2273C49.7045 22.2273 50.6591 21.2727 50.6591 20C50.6591 18.7273 49.7045 17.7727 48.3182 17.7727C46.9318 17.7727 45.9773 18.7273 45.9773 20C45.9773 21.2727 46.9318 22.2273 48.3182 22.2273ZM48.3182 21.3636C47.5 21.3636 46.9545 20.7727 46.9545 20C46.9545 19.2273 47.5 18.6364 48.3182 18.6364C49.1364 18.6364 49.6818 19.2273 49.6818 20C49.6818 20.7727 49.1364 21.3636 48.3182 21.3636Z" fill="white"/>
  <path d="M51.5455 17.8636V22.1364H52.5227V20.5H54.5682V22.1364H55.5455V17.8636H54.5682V19.6364H52.5227V17.8636H51.5455Z" fill="white"/>
  <path d="M56.4318 17.8636V22.1364H57.4091V17.8636H56.4318ZM60.7273 17.8636C59.6818 17.8636 58.9091 18.4091 58.9091 19.3636C58.9091 19.8409 59.4773 20.2273 60.2955 20.3864L59.0455 22.1364H60.1591L61.25 20.5H61.6364V22.1364H62.6136V17.8636H60.7273ZM60.6591 18.7273H61.6364V20H60.7955C60.2955 20 59.9318 19.75 59.9318 19.3636C59.9318 18.9773 60.2955 18.7273 60.6591 18.7273Z" fill="white"/>
</svg>
