<?xml version="1.0" encoding="UTF-8"?>
<svg width="80" height="40" viewBox="0 0 80 40" fill="none" xmlns="http://www.w3.org/2000/svg">
  <path d="M23.5 14.5H18.3536C18.0853 14.5 17.8536 14.6464 17.7536 14.8929L15 21.5L12.2464 14.8929C12.1464 14.6464 11.9147 14.5 11.6464 14.5H6.5C6.2 14.5 6 14.7 6 15V25C6 25.3 6.2 25.5 6.5 25.5H8.5C8.8 25.5 9 25.3 9 25V18.5L11.6464 25.1071C11.7464 25.3536 11.9781 25.5 12.2464 25.5H17.7536C18.0219 25.5 18.2536 25.3536 18.3536 25.1071L21 18.5V25C21 25.3 21.2 25.5 21.5 25.5H23.5C23.8 25.5 24 25.3 24 25V15C24 14.7 23.8 14.5 23.5 14.5Z" fill="#FF9900"/>
  <path d="M32 19.5H28V16.5C28 16.2 27.8 16 27.5 16H25.5C25.2 16 25 16.2 25 16.5V24.5C25 24.8 25.2 25 25.5 25H27.5C27.8 25 28 24.8 28 24.5V21.5H32V24.5C32 24.8 32.2 25 32.5 25H34.5C34.8 25 35 24.8 35 24.5V16.5C35 16.2 34.8 16 34.5 16H32.5C32.2 16 32 16.2 32 16.5V19.5Z" fill="#FF9900"/>
  <path d="M39.8 20.5C38.4 20.1 37.8 19.9 37.8 19.3C37.8 18.7 38.3 18.5 38.9 18.5C39.6 18.5 40.1 18.8 40.3 19.4C40.3 19.4 40.3 19.5 40.4 19.5H42.3C42.5 19.5 42.7 19.3 42.7 19.1C42.4 17.4 41 16 38.9 16C36.8 16 35 17.2 35 19.4C35 21.5 36.6 22.1 38.5 22.6C39.9 23 40.5 23.2 40.5 23.8C40.5 24.4 40 24.7 39.3 24.7C38.5 24.7 38 24.3 37.8 23.7C37.8 23.6 37.7 23.5 37.6 23.5H35.7C35.5 23.5 35.3 23.7 35.3 23.9C35.6 25.7 37.1 27 39.3 27C41.5 27 43.3 25.8 43.3 23.6C43.3 21.6 41.7 21 39.8 20.5Z" fill="#FF9900"/>
  <path d="M59.5 17H57.5C57.2 17 57 17.2 57 17.5C57 17.5 56.9 18.2 56.9 19C56.9 19.4 56.9 19.7 56.9 19.7C56.9 19.8 56.9 19.9 56.8 19.9C56.8 19.9 56.7 20 56.6 20C56.5 20 56.3 19.9 56.1 19.8C55.5 19.2 54.8 19 54 19C51.8 19 50 20.8 50 23.5C50 26.2 51.8 28 54 28C54.9 28 55.7 27.6 56.4 26.9C56.6 26.7 56.7 26.7 56.8 26.7C56.9 26.7 56.9 26.8 56.9 26.9C56.9 26.9 56.9 27.2 56.9 27.6C56.9 27.9 56.9 28.1 56.9 28.1C56.9 28.4 57.1 28.6 57.4 28.6H59.4C59.7 28.6 59.9 28.4 59.9 28.1V17.5C60 17.2 59.8 17 59.5 17ZM56.9 24.4C56.5 25 55.8 25.5 54.9 25.5C53.6 25.5 52.9 24.5 52.9 23.5C52.9 22.5 53.6 21.5 54.9 21.5C55.7 21.5 56.5 21.9 56.9 22.6V24.4Z" fill="#FF9900"/>
  <path d="M73.5 19H71.5C71.2 19 71 19.2 71 19.5V20.1C70.4 19.4 69.5 19 68.5 19C66.1 19 64 20.9 64 23.5C64 26.1 66.1 28 68.5 28C69.5 28 70.4 27.6 71 26.9V27.5C71 27.8 71.2 28 71.5 28H73.5C73.8 28 74 27.8 74 27.5V19.5C74 19.2 73.8 19 73.5 19ZM71 24.4C70.5 25 69.8 25.5 68.9 25.5C67.6 25.5 67 24.5 67 23.5C67 22.5 67.6 21.5 68.9 21.5C69.7 21.5 70.5 21.9 71 22.6V24.4Z" fill="#FF9900"/>
  <path d="M48.3 23.6C48.3 20.5 46 18 43 18H40C39.7 18 39.5 18.2 39.5 18.5V27.5C39.5 27.8 39.7 28 40 28H43C46 28 48.3 25.5 48.3 23.6ZM43 25.5H42.5V20.5H43C44.4 20.5 45.5 21.9 45.5 23C45.5 24.1 44.4 25.5 43 25.5Z" fill="#FF9900"/>
  <path d="M24 28.5H30C30.3 28.5 30.5 28.7 30.5 29V29.5C30.5 29.8 30.3 30 30 30H24C23.7 30 23.5 29.8 23.5 29.5V29C23.5 28.7 23.7 28.5 24 28.5Z" fill="#FF9900"/>
  <path d="M54 10.5H47.5C47.2 10.5 47 10.7 47 11V11.5C47 11.8 47.2 12 47.5 12H49.3L45.9 15.4C45.7 15.6 45.7 15.9 45.9 16.1L46.4 16.6C46.6 16.8 46.9 16.8 47.1 16.6L50.5 13.2V15C50.5 15.3 50.7 15.5 51 15.5H51.5C51.8 15.5 52 15.3 52 15V13.2L55.4 16.6C55.6 16.8 55.9 16.8 56.1 16.6L56.6 16.1C56.8 15.9 56.8 15.6 56.6 15.4L53.2 12H55C55.3 12 55.5 11.8 55.5 11.5V11C55.5 10.7 55.3 10.5 55 10.5H54Z" fill="#232F3E"/>
</svg>
