<?xml version="1.0" encoding="UTF-8"?>
<svg width="120" height="60" viewBox="0 0 120 60" fill="none" xmlns="http://www.w3.org/2000/svg">
  <path d="M35.3955 22.0003H38.8352V26.8529H44.1622V22.0003H47.6019V34.9997H44.1622V29.3694H38.8352V34.9997H35.3955V22.0003Z" fill="#E61A27"/>
  <path d="M53.4233 22.0003H49.9836V35.0001H53.4233V22.0003Z" fill="#E61A27"/>
  <path d="M64.2699 24.1636C63.4552 22.5468 61.8709 22.0003 59.9613 22.0003H55.2856V35.0001H58.7253V29.8248H59.9613C61.8709 29.8248 63.4552 29.2789 64.2699 27.662C64.7748 26.7159 64.9217 25.5513 64.9217 25.1696C64.9217 24.7879 64.7748 23.6177 64.2699 24.1636ZM61.2486 26.3074C60.8904 26.9895 60.2386 27.3073 59.3944 27.3073H58.7253V24.5176H59.3944C60.2386 24.5176 60.8904 24.8347 61.2486 25.5175C61.3956 25.7169 61.4838 26.0079 61.4838 26.9171C61.4838 26.0987 61.3956 26.108 61.2486 26.3074Z" fill="#E61A27"/>
  <path d="M67.9507 22.0006H70.9778L75.8621 29.6974V22.0006H79.0163V35.0003H76.0185L71.105 27.093V35.0003H67.9507V22.0006Z" fill="#E61A27"/>
  <path d="M81.0664 22.0003V35.0001H84.5061V22.0003H81.0664Z" fill="#E61A27"/>
  <path d="M85.8959 22.0003V24.5178H90.0109V35.0001H93.4506V24.5178H97.5656V22.0003H85.8959Z" fill="#E61A27"/>
  <path d="M98.6402 22.0003V24.5178H102.755V35.0001H106.195V24.5178H110.31V22.0003H98.6402Z" fill="#E61A27"/>
  <path d="M24.3623 25.0819C24.3623 25.0819 23.1852 30.1273 18.2819 26.4654C13.3786 22.8036 23.3968 18.7382 23.3968 18.7382L24.3623 25.0819Z" fill="#E61A27"/>
  <path d="M26.8975 26.2114C26.8975 26.2114 30.3177 30.7095 26.4743 34.0818C22.631 37.4542 19.6234 30.3814 19.6234 30.3814L26.8975 26.2114Z" fill="#E61A27"/>
  <path d="M27.0201 22.9462C27.0201 22.9462 32.1772 21.7414 31.2117 27.6987C30.2462 33.656 22.8428 29.937 22.8428 29.937L27.0201 22.9462Z" fill="#E61A27"/>
</svg>
