<?xml version="1.0" encoding="UTF-8"?>
<svg width="120" height="60" viewBox="0 0 120 60" fill="none" xmlns="http://www.w3.org/2000/svg">
  <path d="M12 30C12 22.3 18.3 16 26 16C33.7 16 40 22.3 40 30C40 37.7 33.7 44 26 44C18.3 44 12 37.7 12 30ZM14.5 30C14.5 36.3 19.7 41.5 26 41.5C32.3 41.5 37.5 36.3 37.5 30C37.5 23.7 32.3 18.5 26 18.5C19.7 18.5 14.5 23.7 14.5 30Z" fill="#004990"/>
  <path d="M42 23H44.5V34.5L52.5 23H55L48 32.5L55.5 44H53L46.5 34L44.5 36.5V44H42V23Z" fill="#004990"/>
  <path d="M59 44H56.5V23H59V44Z" fill="#004990"/>
  <path d="M63.5 23H66V32L74.5 23H78L70 31L78.5 44H75L68 33L66 35V44H63.5V23Z" fill="#004990"/>
  <path d="M80.5 44V23H83V34.5L91 23H93.5L86.5 32.5L94 44H91.5L85 34L83 36.5V44H80.5Z" fill="#004990"/>
  <path d="M106 25.5H97V31.5H105V34H97V41.5H106V44H94.5V23H106V25.5Z" fill="#004990"/>
  <path d="M108 23H110.5V32.5C110.5 37 112.5 41.5 117.5 41.5C122.5 41.5 124.5 37 124.5 32.5V23H127V32.5C127 38.5 123.5 44 117.5 44C111.5 44 108 38.5 108 32.5V23Z" fill="#004990"/>
</svg>
