<?xml version="1.0" encoding="UTF-8"?>
<svg width="120" height="60" viewBox="0 0 120 60" fill="none" xmlns="http://www.w3.org/2000/svg">
  <path d="M22 34H31V32H24V29H30V27H24V24H31V22H22V34Z" fill="#005DAA"/>
  <path d="M33 34H35V22H33V34Z" fill="#005DAA"/>
  <path d="M38 34H40V22H38V34Z" fill="#005DAA"/>
  <path d="M43 34H52C54.76 34 57 31.76 57 29C57 26.24 54.76 24 52 24H45V22H43V34ZM45 26H51C53 26 55 27 55 29C55 31 53 32 51 32H45V26Z" fill="#005DAA"/>
  <path d="M60 22C62.7614 22 65 24.2386 65 27C65 29.7614 62.7614 32 60 32C57.2386 32 55 29.7614 55 27C55 24.2386 57.2386 22 60 22Z" fill="#005DAA"/>
  <path d="M77 34V22H75V30L70 22H67V34H69V25L75 34H77Z" fill="#005DAA"/>
  <path d="M81 34H90C92.76 34 95 31.76 95 29C95 26.24 92.76 24 90 24H83V22H81V34ZM83 26H89C91 26 93 27 93 29C93 31 91 32 89 32H83V26Z" fill="#005DAA"/>
</svg>
