<?xml version="1.0" encoding="UTF-8"?>
<svg width="120" height="60" viewBox="0 0 120 60" fill="none" xmlns="http://www.w3.org/2000/svg">
  <path d="M27 25H41V28H31V31H40V34H31V39H27V25Z" fill="#004A87"/>
  <path d="M42 25H46V36H53V39H42V25Z" fill="#004A87"/>
  <path d="M55 25H59V29H62C63.5 29 65 30.1 65 32.5C65 34.9 63.5 36 62 36H59V39H55V25ZM59 33H60.5C61.3 33 61.7 32.6 61.7 32C61.7 31.4 61.3 31 60.5 31H59V33Z" fill="#004A87"/>
  <path d="M67 25H71V29H74C75.5 29 77 30.1 77 32.5C77 34.9 75.5 36 74 36H71V39H67V25ZM71 33H72.5C73.3 33 73.7 32.6 73.7 32C73.7 31.4 73.3 31 72.5 31H71V33Z" fill="#004A87"/>
  <path d="M79 25H93V28H89V39H85V28H79V25Z" fill="#004A87"/>
  <path d="M12 25H24V28H20.5V39H15.5V28H12V25Z" fill="#FBB03B"/>
</svg>
