<?xml version="1.0" encoding="UTF-8"?>
<svg width="120" height="60" viewBox="0 0 120 60" fill="none" xmlns="http://www.w3.org/2000/svg">
  <path d="M22.432 24.4286C25.4286 24.4286 27.8571 26.8571 27.8571 29.8571C27.8571 32.8571 25.4286 35.2857 22.432 35.2857C19.4286 35.2857 17 32.8571 17 29.8571C17 26.8571 19.4286 24.4286 22.432 24.4286Z" fill="#0076C2"/>
  <path d="M34.8571 33.1429L36.7143 26.2857H39.1429L41 33.1429H38.7143L38.2857 31.1429H37.4286L36.9999 33.1429H34.8571ZM37.5714 30.1429H38.1429L37.8571 28.5714L37.5714 30.1429ZM41.7143 33.1429V26.2857H45.1428C46.2857 26.2857 47.1428 27.1428 47.1428 28.2857C47.1428 29.4286 46.2857 30.2857 45.1428 30.2857H44.1428V33.1429H41.7143ZM44 28.7143H44.7143C44.8571 28.7143 45 28.5714 45 28.4286C45 28.2857 44.8571 28.1428 44.7143 28.1428H44V28.7143ZM50.1428 33.1429V26.2857H54.1428V28.0001H52.5714V28.8571H53.8571V30.5714H52.5714V31.5714H54.1428V33.1429H50.1428ZM55.4285 33.1429V26.2857H58.5714C59.7142 26.2857 60.5714 27.1428 60.5714 28.2857C60.5714 29 60.1428 29.7143 59.4285 30C59.8571 30.2857 60 30.5714 60 31.1429C60 32.2857 59.1428 33.1429 58 33.1429H55.4285ZM57.8571 28.7143C57.9999 28.7143 58.1428 28.5714 58.1428 28.4286C58.1428 28.2857 57.9999 28.1428 57.8571 28.1428H57.7142V28.7143H57.8571ZM57.8571 31.2857C57.9999 31.2857 58.1428 31.1429 58.1428 31C58.1428 30.8571 57.9999 30.7143 57.8571 30.7143H57.7142V31.2857H57.8571ZM65 33.1429L62.8571 26.2857H65.1428L66.1428 30L67.1428 26.2857H69.4285L67.2856 33.1429H65ZM71.8571 33.1429V26.2857H74.2856V33.1429H71.8571ZM75.9999 33.1429V26.2857H78.9999C80.1428 26.2857 80.9999 27.1428 80.9999 28.2857V33.1429H78.5714V28.5714H78.2856V33.1429H75.9999ZM83.2856 33.1429V26.2857H86.4285C87.5714 26.2857 88.4285 27.1428 88.4285 28.2857V31.1429C88.4285 32.2857 87.5714 33.1429 86.4285 33.1429H83.2856ZM85.7142 31.2857C85.8571 31.2857 85.9999 31.1429 85.9999 31V28.5714C85.9999 28.4286 85.8571 28.2857 85.7142 28.2857H85.5714V31.2857H85.7142ZM90.1427 33.1429V26.2857H93.1427C94.2856 26.2857 95.1427 27.1428 95.1427 28.2857C95.1427 29.4286 94.2856 30.2857 93.1427 30.2857H92.5713V33.1429H90.1427ZM92.4284 28.7143H92.8571C92.9999 28.7143 93.1427 28.5714 93.1427 28.4286C93.1427 28.2857 92.9999 28.1428 92.8571 28.1428H92.4284V28.7143ZM97.9999 33.1429V26.2857H101.857V28.0001H100.428V28.8571H101.714V30.5714H100.428V31.5714H101.857V33.1429H97.9999Z" fill="#0076C2"/>
  <path d="M24.8571 38.4286V42.8571H24.1429V40.2857L22.8571 42.8571H22.4286L21.1429 40.2857V42.8571H20.4286V38.4286H21.2857L22.7143 41.2857L24.1429 38.4286H24.8571ZM28.8571 42.8571L28.7143 42.4286C28.4286 42.7143 28 42.8571 27.5714 42.8571C26.8571 42.8571 26.4286 42.4286 26.4286 41.8571C26.4286 41.2857 26.8571 40.8571 27.5714 40.8571H28.7143V40.7143C28.7143 40.2857 28.4286 40 27.8571 40C27.4286 40 27 40.1429 26.5714 40.5714L26.2857 40C26.7143 39.5714 27.2857 39.4286 27.8571 39.4286C28.8571 39.4286 29.4286 39.8571 29.4286 40.7143V42.8571H28.8571ZM28.7143 41.4286V41.2857H27.7143C27.2857 41.2857 27.1429 41.5714 27.1429 41.8571C27.1429 42.1429 27.4286 42.2857 27.7143 42.2857C28.1429 42.2857 28.5714 41.8571 28.7143 41.4286ZM32.4286 39.5714H31.1429V39H32.4286V38.1429L33.1429 37.8571V39H34.2857V39.5714H33.1429V41.7143C33.1429 42.1429 33.2857 42.2857 33.7143 42.2857C33.8571 42.2857 34 42.2857 34.1429 42.1429V42.7143C34 42.8571 33.7143 42.8571 33.5714 42.8571C32.7143 42.8571 32.4286 42.2857 32.4286 41.7143V39.5714ZM39.7143 42.8571V40.2857C39.7143 39.7143 39.5714 39.5714 39.1429 39.5714C38.7143 39.5714 38.2857 40 38.2857 40.5714V42.8571H37.5714V39.5714H38.2857V40C38.5714 39.7143 38.8571 39.5714 39.2857 39.5714C40 39.5714 40.4286 40 40.4286 40.7143V42.8571H39.7143ZM45 42.8571H44.2857L42.7143 40.7143V42.8571H42V37.8571H42.7143V40.4286L44.1429 39H45L43.7143 40.4286L45 42.8571ZM51.5714 41.2857C51.5714 42.2857 50.8571 42.8571 49.8571 42.8571C48.8571 42.8571 48.1429 42.2857 48.1429 41.2857V39.5714H48.8571V41.2857C48.8571 41.8571 49.1429 42.2857 49.8571 42.2857C50.4286 42.2857 50.8571 41.8571 50.8571 41.2857V39.5714H51.5714V41.2857ZM56.2857 42.8571V40.2857C56.2857 39.7143 56.1429 39.5714 55.7143 39.5714C55.2857 39.5714 54.8571 40 54.8571 40.5714V42.8571H54.1429V40.2857C54.1429 39.7143 54 39.5714 53.5714 39.5714C53.1429 39.5714 52.7143 40 52.7143 40.5714V42.8571H52V39.5714H52.7143V40C53 39.7143 53.2857 39.5714 53.7143 39.5714C54.1429 39.5714 54.4286 39.7143 54.5714 40C54.8571 39.7143 55.1429 39.5714 55.5714 39.5714C56.2857 39.5714 57 40 57 40.7143V42.8571H56.2857ZM60.5714 42.1429C60.2857 42.5714 59.8571 42.8571 59.2857 42.8571C58.4286 42.8571 57.7143 42.1429 57.7143 41.2857C57.7143 40.4286 58.4286 39.7143 59.2857 39.7143C59.8571 39.7143 60.2857 40 60.5714 40.4286V39.5714H61.2857V42.8571H60.5714V42.1429ZM59.4286 42.1429C59.8571 42.1429 60.2857 41.7143 60.4286 41.2857V41C60.2857 40.5714 59.8571 40.2857 59.4286 40.2857C58.8571 40.2857 58.4286 40.7143 58.4286 41.2857C58.4286 41.8571 58.8571 42.1429 59.4286 42.1429ZM65.1429 42.8571L65 42.4286C64.7143 42.7143 64.2857 42.8571 63.8571 42.8571C63.1429 42.8571 62.7143 42.4286 62.7143 41.8571C62.7143 41.2857 63.1429 40.8571 63.8571 40.8571H65V40.7143C65 40.2857 64.7143 40 64.1429 40C63.7143 40 63.2857 40.1429 62.8571 40.5714L62.5714 40C63 39.5714 63.5714 39.4286 64.1429 39.4286C65.1429 39.4286 65.7143 39.8571 65.7143 40.7143V42.8571H65.1429ZM65 41.4286V41.2857H64C63.5714 41.2857 63.4286 41.5714 63.4286 41.8571C63.4286 42.1429 63.7143 42.2857 64 42.2857C64.4286 42.2857 64.8571 41.8571 65 41.4286ZM68.7143 42.8571V40.2857C68.7143 39.7143 68.5714 39.5714 68.1429 39.5714C67.7143 39.5714 67.2857 40 67.2857 40.5714V42.8571H66.5714V39.5714H67.2857V40C67.5714 39.7143 67.8571 39.5714 68.2857 39.5714C69 39.5714 69.4286 40 69.4286 40.7143V42.8571H68.7143ZM74 42.8571H73.2857L71.7143 40.7143V42.8571H71V37.8571H71.7143V40.4286L73.1429 39H74L72.7143 40.4286L74 42.8571Z" fill="#0076C2"/>
</svg>
