<?xml version="1.0" encoding="UTF-8"?>
<svg version="1.1" xmlns="http://www.w3.org/2000/svg" width="1394" height="386">
<path d="M0 0 C460.02 0 920.04 0 1394 0 C1394 127.38 1394 254.76 1394 386 C933.98 386 473.96 386 0 386 C0 258.62 0 131.24 0 0 Z " fill="transparent" transform="translate(0,0)"/>
<path d="M0 0 C2.04596074 -0.00271302 4.0919205 -0.00627569 6.13787842 -0.01062012 C11.67286251 -0.0197088 17.20777174 -0.01621455 22.74275708 -0.00986195 C28.54546126 -0.0047844 34.3481592 -0.00949821 40.15086365 -0.01263428 C49.89274237 -0.01626851 59.63459073 -0.01148874 69.37646484 -0.00195312 C80.62820066 0.00893342 91.87986399 0.00540219 103.13159806 -0.00560594 C112.80575192 -0.0146906 122.479884 -0.0159584 132.15404075 -0.0107286 C137.92609116 -0.00761579 143.69810752 -0.00718069 149.47015572 -0.01380157 C154.89649971 -0.01959166 160.32275051 -0.01554768 165.74908447 -0.00401306 C167.73681929 -0.0013755 169.72456198 -0.00211607 171.71229362 -0.00653839 C174.43249184 -0.01203097 177.1523943 -0.00511493 179.87257385 0.00482178 C180.65274528 0.00036033 181.4329167 -0.00410111 182.23672968 -0.00869775 C195.82052684 0.08706858 206.39692238 4.99733047 216.26342773 14.29003906 C224.78770402 24.18080239 227.57816297 35.43162661 226.99682617 48.21240234 C226.02075615 59.63896506 219.63098178 69.30296564 211.07202148 76.57128906 C202.17131283 83.29445431 193.48957374 86.41122973 182.44934082 86.39923096 C181.59684391 86.40220208 180.74434701 86.4051732 179.86601686 86.40823436 C177.00433662 86.41691808 174.14269824 86.41842936 171.28100586 86.41992188 C169.23094595 86.42455042 167.1808869 86.42957513 165.13082886 86.43496704 C159.55605794 86.44809288 153.98129908 86.45453682 148.40651512 86.4589777 C144.92152622 86.46190922 141.4365406 86.46601427 137.95155334 86.47048187 C127.04216257 86.4841597 116.13277932 86.49382394 105.22338057 86.49768376 C92.64162051 86.50215991 80.05996935 86.51968607 67.4782424 86.54868436 C57.7472669 86.57033116 48.01632197 86.58038971 38.28532267 86.58172488 C32.47672751 86.58277112 26.66823467 86.58863988 20.85966492 86.60654449 C15.3898702 86.6230761 9.92025413 86.62515597 4.45044327 86.61640549 C2.44945419 86.61563773 0.44845532 86.61994311 -1.55250931 86.62986374 C-18.35398067 86.70823689 -32.30484666 85.46572779 -45.36547852 73.75878906 C-54.45091504 64.24862685 -57.58623786 52.34735091 -57.38891602 39.56738281 C-57.06289889 30.27589483 -53.73530064 23.58249719 -48.17797852 16.25878906 C-47.59145508 15.44410156 -47.00493164 14.62941406 -46.40063477 13.79003906 C-43.77804897 10.80333328 -40.86906083 8.70098306 -37.55297852 6.57128906 C-36.98708008 6.18134766 -36.42118164 5.79140625 -35.83813477 5.38964844 C-25.24702268 -1.47931007 -12.09467994 -0.02693831 0 0 Z " fill="#F5C15A" transform="translate(96.177978515625,55.7412109375)"/>
<path d="M0 0 C13.2 0 26.4 0 40 0 C40 25.08 40 50.16 40 76 C42.64 73.69 45.28 71.38 48 69 C62.99119844 57.64303148 78.64620843 56.03905132 97 58 C103.34644875 59.15225663 109.16621282 61.29074449 115 64 C116.09183594 64.495 117.18367187 64.99 118.30859375 65.5 C134.66600764 74.00840775 144.42050202 88.35783333 149.9375 105.5625 C152.01273222 113.05257656 152.18247072 120.53507802 152.1875 128.25 C152.19974609 129.22324219 152.21199219 130.19648438 152.22460938 131.19921875 C152.26347917 150.71185682 145.74770482 168.44864248 132.33203125 182.6875 C126.63857281 188.33327453 120.76302299 192.3512308 113.5625 195.8125 C112.96614746 196.10278076 112.36979492 196.39306152 111.75537109 196.69213867 C102.80190987 200.77602563 93.72373694 201.32403861 84 201.25 C82.98421875 201.25773438 81.9684375 201.26546875 80.921875 201.2734375 C62.72436496 201.22677722 50.68180232 194.68180232 38 182 C38 188.27 38 194.54 38 201 C25.46 201 12.92 201 0 201 C0 134.67 0 68.34 0 0 Z " fill="#1E1E1C" transform="translate(408,56)"/>
<path d="M0 0 C14.85 0 29.7 0 45 0 C46.32 4.29 47.64 8.58 49 13 C49.91084164 15.78409362 50.82855953 18.56233711 51.76953125 21.3359375 C52.26772548 22.81643805 52.76576686 24.29699005 53.26367188 25.77758789 C53.51689209 26.52896027 53.7701123 27.28033264 54.03100586 28.05447388 C58.1250044 40.2109701 62.15724005 52.37238081 65.76879883 64.68310547 C67.59958064 70.88514628 69.73420479 76.94374217 72 83 C72.9698379 80.71264646 73.92573867 78.42088788 74.875 76.125 C75.14441406 75.49335938 75.41382813 74.86171875 75.69140625 74.2109375 C77.19109143 70.55316877 78.25069598 67.06084556 78.9609375 63.16796875 C79.98504588 57.61125221 81.80918051 52.4820189 83.75 47.1875 C86.84688806 38.5406384 89.59809985 29.86526493 92.00878906 21.00268555 C93.22729491 16.55192791 94.57601262 12.26670613 96.34057617 7.99975586 C97.19343501 5.41339275 97.5522838 2.68629719 98 0 C108.89 0 119.78 0 131 0 C131.7425 2.536875 132.485 5.07375 133.25 7.6875 C135.09206918 13.96307443 136.97768381 20.22273313 138.91796875 26.46875 C139.72756059 29.11088364 140.52099991 31.75533271 141.30078125 34.40625 C144.38940651 44.87974853 147.69251662 55.26021 151.19628906 65.6027832 C153.25810971 71.70069549 155.19492848 77.82106887 157 84 C159.13082894 79.29165276 160.68946111 74.7850067 161.9375 69.75 C163.31107796 64.36789781 164.95827904 59.19785506 166.93359375 54.0078125 C168.27893615 50.213257 169.38959158 46.3686967 170.5 42.5 C172.13242166 36.81755881 173.9387778 31.27750195 176.03515625 25.74609375 C177.55614015 21.41713958 178.70620939 16.98983044 179.875 12.5546875 C181.23887842 8.24521055 183.16419322 4.13056526 185 0 C199.52 0 214.04 0 229 0 C228.34796071 3.91223572 227.83165039 6.87137891 226.546875 10.46875 C226.26013916 11.27948975 225.97340332 12.09022949 225.67797852 12.92553711 C225.37174561 13.77510986 225.0655127 14.62468262 224.75 15.5 C224.43281006 16.39146729 224.11562012 17.28293457 223.78881836 18.20141602 C223.15212649 19.98934218 222.51341405 21.77655026 221.87255859 23.56298828 C221.14305226 25.60046233 220.42378651 27.64159916 219.70703125 29.68359375 C217.25695948 36.64915615 214.6492427 43.54603795 212 50.4375 C209.18694959 57.76135641 206.5642136 65.1038689 204.12890625 72.5625 C200.89289646 82.41609383 197.21632687 92.10848564 193.5625 101.8125 C186.50077533 120.37616563 186.50077533 120.37616563 180.54296875 139.3125 C180 141 180 141 179 142 C175.97022196 142.08871273 172.96332978 142.1151935 169.93359375 142.09765625 C169.02497086 142.0962413 168.11634796 142.09482635 167.18019104 142.09336853 C164.26592779 142.08775193 161.35174019 142.07519665 158.4375 142.0625 C156.46679798 142.05748714 154.49609476 142.05292386 152.52539062 142.04882812 C147.68356441 142.03777711 142.84179505 142.02050138 138 142 C137.83362534 141.46600082 137.66725067 140.93200165 137.49583435 140.38182068 C136.72723599 137.91923532 135.95543366 135.45766495 135.18359375 132.99609375 C134.92203491 132.15639038 134.66047607 131.31668701 134.39099121 130.45153809 C132.34293909 123.93156337 130.01903435 117.55693359 127.57421875 111.17578125 C123.03361888 99.25129424 118.96794208 87.12563666 115 75 C112.71203856 78.43194215 111.50924075 81.94390632 110.1875 85.8125 C109.70227482 87.21500018 109.2165795 88.61733777 108.73046875 90.01953125 C108.46387451 90.79063232 108.19728027 91.5617334 107.92260742 92.35620117 C106.41493985 96.67653251 104.86872925 100.98302328 103.3269043 105.29125977 C102.01250991 108.9650344 100.7028877 112.64047744 99.39453125 116.31640625 C98.53385417 118.73177083 97.67317708 121.14713542 96.8125 123.5625 C96.37486328 124.79291016 95.93722656 126.02332031 95.48632812 127.29101562 C95.06416016 128.47501953 94.64199219 129.65902344 94.20703125 130.87890625 C93.8303833 131.9366626 93.45373535 132.99441895 93.06567383 134.08422852 C92.09435022 136.74185001 91.05087298 139.37281756 90 142 C76.47 142 62.94 142 49 142 C44.3125 127.875 44.3125 127.875 42.8684082 123.51513672 C40.38035337 116.03518312 37.81124993 108.59272575 35.14086914 101.17529297 C33.58194557 96.83646139 32.07357276 92.48065817 30.5625 88.125 C28.44828779 82.05412486 26.28224102 76.00972282 24 70 C20.2054286 60.00420326 16.73675627 49.89415339 13.23486328 39.79296875 C12.51351116 37.71516626 11.78911358 35.63846814 11.0625 33.5625 C10.82837402 32.8926709 10.59424805 32.2228418 10.35302734 31.53271484 C8.9165239 27.46661472 7.40686562 23.43478564 5.84765625 19.4140625 C5.29549438 17.98791626 5.29549438 17.98791626 4.73217773 16.53295898 C4.00753746 14.67062548 3.27681088 12.81064594 2.53930664 10.95336914 C2.20922607 10.10637451 1.87914551 9.25937988 1.5390625 8.38671875 C1.24209473 7.63608154 0.94512695 6.88544434 0.63916016 6.11206055 C0 4 0 4 0 0 Z " fill="#1F1F1D" transform="translate(1143,114)"/>
<path d="M0 0 C1.95679688 0.08701172 1.95679688 0.08701172 3.953125 0.17578125 C24.6451311 2.03447877 42.65450701 13.51673753 56 29 C68.21103657 45.90061833 69.59157884 65.82558494 68 86 C65.14971549 103.37109369 55.97238649 119.74063922 41.625 130.0625 C37.32199546 133 37.32199546 133 35 133 C35 133.66 35 134.32 35 135 C12.76813488 144.14337668 -13.48830015 149.46190676 -36.734375 140.48046875 C-37.81203125 139.99191406 -38.8896875 139.50335938 -40 139 C-41.07765625 138.54238281 -42.1553125 138.08476562 -43.265625 137.61328125 C-59.83197951 130.0169001 -70.96138592 116.98303189 -78.1015625 100.44921875 C-81.37230435 91.14907904 -82.32500064 81.8688333 -82.25 72.0625 C-82.26160156 70.55139648 -82.26160156 70.55139648 -82.2734375 69.00976562 C-82.24756296 58.95103729 -80.96368069 49.73168666 -76.5625 40.625 C-76.21396973 39.9023999 -75.86543945 39.1797998 -75.50634766 38.43530273 C-66.33887207 20.31824403 -50.95501389 9.29065631 -32 3 C-31.03964844 2.66097656 -30.07929687 2.32195312 -29.08984375 1.97265625 C-19.61661686 -0.9186099 -9.78953937 -0.44080852 0 0 Z " fill="#1F1F1D" transform="translate(1069,113)"/>
<path d="M0 0 C1.09379974 -0.00817749 2.18759949 -0.01635498 3.31454468 -0.02478027 C6.91444368 -0.04948098 10.51430371 -0.06610907 14.11425781 -0.08056641 C15.34965553 -0.08589008 16.58505325 -0.09121376 17.85788727 -0.09669876 C23.72263108 -0.12062057 29.58735905 -0.1398719 35.45213771 -0.15272081 C42.18626145 -0.16777427 48.91989971 -0.20287052 55.65383792 -0.254722 C61.51643519 -0.29830181 67.37887128 -0.31408662 73.2416153 -0.32045364 C75.72138469 -0.32714514 78.20114706 -0.34231188 80.68080902 -0.36634445 C105.63614328 -0.594456 105.63614328 -0.594456 114.81738281 5.19287109 C115.95503082 5.90765121 115.95503082 5.90765121 117.11566162 6.63687134 C125.6955672 12.37813943 133.35623505 21.05741712 135.81738281 31.19287109 C137.57114927 44.66201532 136.61154456 55.89054286 128.81738281 67.19287109 C128.10001953 68.26021484 128.10001953 68.26021484 127.36816406 69.34912109 C120.37317195 78.48870964 109.99980993 83.44508807 98.81738281 85.19287109 C90.46991161 85.9285595 82.06826606 85.78135056 73.69628906 85.75927734 C71.26358301 85.76452274 68.83087898 85.77080255 66.3981781 85.77806091 C61.31898372 85.78842369 56.24007023 85.78396274 51.16088867 85.76928711 C44.68752735 85.75210371 38.21505408 85.7756124 31.74179173 85.81077671 C26.72367088 85.83285188 21.70575923 85.83128476 16.6876049 85.8230114 C14.30244917 85.82219747 11.9172772 85.82895261 9.53216743 85.84378242 C-7.53460456 85.93365486 -22.5053126 85.64570013 -35.87792969 73.64208984 C-39.46621007 69.82878171 -41.95405807 65.91512337 -44.18261719 61.19287109 C-44.59382813 60.37431641 -45.00503906 59.55576172 -45.42871094 58.71240234 C-49.87242215 48.54875836 -49.79042995 36.68203745 -46.24511719 26.25537109 C-41.43424105 15.43089979 -32.458689 7.24645729 -21.88574219 2.06787109 C-14.83618737 -0.21406573 -7.33241573 0.03067228 0 0 Z " fill="#F5C15A" transform="translate(87.1826171875,156.80712890625)"/>
<path d="M0 0 C1.13588058 -0.00671722 2.27176117 -0.01343445 3.44206238 -0.02035522 C7.18692431 -0.03931063 10.93160679 -0.0432582 14.67651367 -0.04541016 C17.28814263 -0.05183969 19.89977086 -0.05856817 22.51139832 -0.06558228 C27.98287112 -0.07834973 33.45429556 -0.08134958 38.92578125 -0.08007812 C45.22938069 -0.07887763 51.53263725 -0.09996852 57.83614999 -0.13156545 C63.92356623 -0.16098008 70.01081928 -0.16805124 76.09830284 -0.16685867 C78.6773894 -0.16921289 81.25647872 -0.17802622 83.83551979 -0.19352341 C87.44922652 -0.2132051 91.06205926 -0.20733576 94.67578125 -0.1953125 C95.73221832 -0.20655151 96.7886554 -0.21779053 97.87710571 -0.22937012 C109.75522363 -0.12937495 118.62555414 4.62032255 127.53198242 12.29052734 C136.37631969 21.58267915 140.04859369 32.51641339 139.80151367 45.07958984 C139.26941987 56.72274589 133.66754615 66.43780875 125.32885742 74.39208984 C117.73063688 80.63538294 109.51970059 84.3782404 99.61437988 84.44442749 C98.65025177 84.45302795 97.68612366 84.46162842 96.69277954 84.4704895 C95.64649384 84.47474945 94.60020813 84.4790094 93.5222168 84.48339844 C92.41095428 84.49157593 91.29969177 84.49975342 90.15475464 84.50817871 C86.4784193 84.53298136 82.80212253 84.54953824 79.12573242 84.56396484 C77.86676651 84.56928852 76.6078006 84.5746122 75.3106842 84.5800972 C70.01423436 84.60131727 64.71779788 84.62044522 59.42131805 84.63171959 C51.86488802 84.64791714 44.30897546 84.68100413 36.75274038 84.73812044 C30.77640788 84.78173192 24.800308 84.79748901 18.82380676 84.80385208 C16.29462506 84.81054225 13.76545022 84.82570549 11.2363739 84.84974289 C-5.45602059 84.99930768 -19.03859571 85.02181719 -32.24926758 73.50537109 C-41.06366021 64.70649676 -45.48107185 54.04399102 -45.90551758 41.54052734 C-45.67525615 36.13335378 -44.39953455 31.32596679 -42.46801758 26.29052734 C-42.22438477 25.61376953 -41.98075195 24.93701172 -41.72973633 24.23974609 C-37.56425137 14.3886703 -28.01238814 6.67057957 -18.46801758 2.29052734 C-12.2799821 0.07241188 -6.5349492 -0.00557463 0 0 Z " fill="#EB4B50" transform="translate(183.468017578125,255.70947265625)"/>
<path d="M0 0 C0.8240332 -0.01804688 1.64806641 -0.03609375 2.49707031 -0.0546875 C3.29854492 -0.05339844 4.10001953 -0.05210938 4.92578125 -0.05078125 C5.9782605 -0.05525269 5.9782605 -0.05525269 7.05200195 -0.05981445 C11.05041548 0.50503785 14.8566082 2.03553607 18.6875 3.3125 C18.6875 14.8625 18.6875 26.4125 18.6875 38.3125 C14.6875 37.3125 14.6875 37.3125 12.71484375 36.77734375 C4.0906865 34.60115454 -4.38965604 33.7851606 -12.3125 38.3125 C-16.36397339 41.48797914 -16.53687365 42.98562096 -18.3125 48.3125 C-18.6425 53.5925 -18.9725 58.8725 -19.3125 64.3125 C-6.7725 64.3125 5.7675 64.3125 18.6875 64.3125 C18.6875 75.5325 18.6875 86.7525 18.6875 98.3125 C6.1475 98.3125 -6.3925 98.3125 -19.3125 98.3125 C-19.3125 131.3125 -19.3125 164.3125 -19.3125 198.3125 C-32.8425 198.3125 -46.3725 198.3125 -60.3125 198.3125 C-60.3125 165.3125 -60.3125 132.3125 -60.3125 98.3125 C-68.2325 98.3125 -76.1525 98.3125 -84.3125 98.3125 C-84.3125 87.0925 -84.3125 75.8725 -84.3125 64.3125 C-76.0625 64.3125 -67.8125 64.3125 -59.3125 64.3125 C-59.4671875 59.053125 -59.4671875 59.053125 -59.625 53.6875 C-59.76934808 40.10922146 -57.03103965 29.08000101 -48.3125 18.3125 C-47.78527344 17.63832031 -47.25804687 16.96414062 -46.71484375 16.26953125 C-38.64589197 7.10107395 -26.1705615 1.632786 -14.16015625 0.48828125 C-9.43913201 0.27259994 -4.72555124 0.07663998 0 0 Z " fill="#20201E" transform="translate(871.3125,57.6875)"/>
<path d="M0 0 C35.97 0 71.94 0 109 0 C109 29.76793709 109 29.76793709 100.4921875 38.99609375 C96.82016353 43.14123204 93.63491959 47.54649258 90.4375 52.0625 C89.34460406 53.57353475 88.25086169 55.08395769 87.15625 56.59375 C83.73027413 61.3534391 80.40513272 66.1785783 77.10009766 71.02270508 C73.26853354 76.63345857 69.35700055 82.18504179 65.40991211 87.71508789 C61.13562776 93.73060835 57.10080964 99.84878554 53 106 C71.48 106 89.96 106 109 106 C109 117.88 109 129.76 109 142 C73.03 142 37.06 142 0 142 C0 111.0729927 0 111.0729927 10.6484375 98.40234375 C15.12673749 92.9093505 19.12871625 87.16130122 23.125 81.3125 C24.46307406 79.38939247 25.80289563 77.46749955 27.14453125 75.546875 C31.68330176 69.02769403 36.16887695 62.47275565 40.64453125 55.91015625 C45.41469505 48.92983507 50.21025606 41.96690027 55 35 C36.85 35 18.7 35 0 35 C0 23.45 0 11.9 0 0 Z " fill="#1F1F1D" transform="translate(654,114)"/>
<path d="M0 0 C13.2 0 26.4 0 40 0 C40 65.67 40 131.34 40 199 C26.8 199 13.6 199 0 199 C0 133.33 0 67.66 0 0 Z " fill="#1D1D1B" transform="translate(923,56)"/>
<path d="M0 0 C13.53 0 27.06 0 41 0 C41 47.19 41 94.38 41 143 C27.47 143 13.94 143 0 143 C0 95.81 0 48.62 0 0 Z " fill="#222220" transform="translate(586,113)"/>
<path d="M0 0 C3.32334563 2.05150808 6.17751086 4.30607144 9 7 C9.82564453 7.78310547 9.82564453 7.78310547 10.66796875 8.58203125 C19.21596189 17.61345845 22.70506929 28.73564121 22.40234375 40.91015625 C21.62226513 52.63909632 14.38922808 62.93876104 6.09765625 70.8046875 C-3.10690277 78.37162559 -15.32153112 81.02958794 -27 80 C-40.29868491 77.37816901 -48.78788885 70.51596134 -57 60 C-62.95779459 50.941281 -64.0575605 40.63501851 -63 30 C-61.34331201 22.14711175 -58.33744442 15.96620096 -53 10 C-52.236875 9.13375 -51.47375 8.2675 -50.6875 7.375 C-35.55648586 -5.99659389 -18.54331282 -9.08851258 0 0 Z " fill="#EB4C51" transform="translate(301,162)"/>
<path d="M0 0 C1.0725 0.763125 2.145 1.52625 3.25 2.3125 C10.8884603 9.77735893 16.38641667 19.67230452 16.75976562 30.4465332 C16.75493164 31.74143677 16.75493164 31.74143677 16.75 33.0625 C16.74516602 34.42797974 16.74516602 34.42797974 16.74023438 35.82104492 C16.33760133 47.09180958 11.66966332 56.50043875 4 64.6875 C2.7002847 65.83104796 1.36795438 66.93902751 0 68 C-0.61359375 68.48726563 -1.2271875 68.97453125 -1.859375 69.4765625 C-11.80283141 76.50272385 -25.07433984 77.49801289 -36.79296875 75.53125 C-42.99852121 73.91492006 -47.98267112 70.93883763 -53 67 C-53.61746094 66.52046875 -54.23492187 66.0409375 -54.87109375 65.546875 C-61.34182259 59.83995157 -65.30021357 51.09935929 -68 43 C-68.77698812 28.99927176 -67.69721553 18.46161166 -59 7 C-58.38125 6.16339844 -57.7625 5.32679688 -57.125 4.46484375 C-43.04782144 -11.8636483 -16.59483765 -11.89594097 0 0 Z " fill="#F5C15A" transform="translate(107,264)"/>
<path d="M0 0 C8.26302916 4.72788973 13.86778593 12.28845282 16.52734375 21.4296875 C18.53789737 32.36311134 17.19812148 42.94150042 11.4921875 52.53515625 C6.33017379 59.7259614 -0.39428139 64.75193403 -9 67 C-18.44044697 67.98013187 -28.90103423 68.5251419 -37 63 C-38.03640625 62.34644531 -38.03640625 62.34644531 -39.09375 61.6796875 C-46.64575235 56.52290978 -51.55988064 49.80619739 -54 41 C-55.67017841 29.8304528 -54.71639512 19.33742737 -48 10 C-36.86940072 -4.59706329 -16.00898097 -8.14402994 0 0 Z " fill="#FBFBFB" transform="translate(503,154)"/>
<path d="M0 0 C9.01683915 5.29868852 13.95597837 11.85476543 17.71875 21.59765625 C20.5393306 32.60311185 19.10004119 44.11032 13.36328125 53.9140625 C7.90561531 61.62502752 1.92929956 66.36244895 -7.28125 68.59765625 C-16.94197241 69.86907317 -28.2757074 70.57106901 -36.34375 64.43359375 C-46.28602145 55.01248975 -51.04908267 45.60298518 -51.71875 31.84765625 C-51.5227063 22.24151506 -47.9466797 13.22551191 -41.23828125 6.3125 C-29.28849332 -4.15847186 -14.71293492 -7.09938661 0 0 Z " fill="#FBFBFB" transform="translate(1078.28125,152.40234375)"/>
<path d="M0 0 C4.26053911 3.50526172 8.4373695 8.57613914 8.9921875 14.171875 C9.21804049 21.65977018 8.85583613 26.75387882 3.71875 32.4140625 C-1.24293596 37.36305873 -5.43429496 39.70868826 -12.46875 39.8515625 C-20.05262649 39.69852463 -24.80288409 37.88521188 -30.1640625 32.53515625 C-34.41852193 27.16266445 -35.08455261 22.251199 -34.73046875 15.5 C-33.68536982 8.32062472 -30.55397762 4.12336031 -25.0625 -0.45703125 C-18.28361314 -4.75329945 -6.72893294 -3.96322745 0 0 Z " fill="#21211F" transform="translate(619.28125,60.5859375)"/>
<path d="M0 0 C2.45354848 0.98141939 3.79646768 1.72245592 5.375 3.875 C6 6 6 6 5.125 8.25 C4.75375 8.8275 4.3825 9.405 4 10 C4.99 11.485 4.99 11.485 6 13 C6.47771973 18.1593731 5.77695812 20.71885622 3 25 C2.53047232 28.87429759 2.53047232 28.87429759 4.46875 30.48046875 C4.9740625 30.98191406 5.479375 31.48335938 6 32 C6.84561428 35.69956249 6.78122431 39.41751999 5.0859375 42.8515625 C2.25841525 46.55470455 -0.50143895 48.13489211 -5 49 C-11.11070845 49.61442224 -15.62040128 49.01257528 -21 46 C-24.08018666 43.02248623 -24.52419687 40.1870675 -25 36 C-21.95071529 35.71233163 -19.03635826 35.53747231 -16 36 C-14.3125 38.5 -14.3125 38.5 -13 41 C-9.44569217 41.45374142 -6.41172352 41.04976108 -3 40 C-3 37.69 -3 35.38 -3 33 C-4.62808594 32.814375 -4.62808594 32.814375 -6.2890625 32.625 C-19.33514782 30.86213861 -19.33514782 30.86213861 -23 26.4375 C-25.61901602 21.78810675 -26.3840709 17.17593377 -25 12 C-22.29986344 7.60953405 -18.92846061 3.79216749 -14 2 C-11.0546875 1.875 -11.0546875 1.875 -7.875 2 C-4.76530951 2.16731118 -4.76530951 2.16731118 -2 2 C-1.34 1.34 -0.68 0.68 0 0 Z " fill="#EB5358" transform="translate(486,309)"/>
<path d="M0 0 C1.98 1.32 3.96 2.64 6 4 C5.34 5.98 4.68 7.96 4 10 C4.66 10.66 5.32 11.32 6 12 C6.78749723 16.66088476 6.60035861 20.08070088 4 24.0625 C3.34 24.701875 2.68 25.34125 2 26 C3.15173355 28.46800047 4.04783565 30.04783565 6 32 C6.73731981 36.36390443 6.55653609 39.9759736 4.4375 43.875 C-0.87767512 48.50874241 -5.7395152 49.52610737 -12.6328125 49.28515625 C-17.23772218 48.73043941 -20.01907484 47.24250521 -22.875 43.625 C-24.06785191 40.84167887 -24.25657385 38.99336155 -24 36 C-18.60598179 35.55786736 -18.60598179 35.55786736 -16 36 C-14.375 38.5 -14.375 38.5 -13 41 C-8.91399472 41.59587577 -7.47351075 41.31567384 -4 39 C-3.5 36.5 -3.5 36.5 -4 34 C-7.16521291 31.88985806 -8.69030374 31.64682515 -12.375 31.1875 C-17.39294285 30.35228098 -19.8459155 29.17153111 -23 25 C-25.71489924 20.92765113 -25.38751783 17.76815422 -25 13 C-23.86055251 7.98643104 -21.00890694 5.94531939 -17 3 C-12.86681495 1.62227165 -9.03876942 2.0291282 -4.71484375 2.16015625 C-1.84991728 2.29274244 -1.84991728 2.29274244 0 0 Z " fill="#EB5358" transform="translate(868,309)"/>
<path d="M0 0 C2.88437779 1.29299694 4.87219421 2.65941363 7 5 C6.34 5.66 5.68 6.32 5 7 C5.30404678 8.67225729 5.64628502 10.33753959 6 12 C6.4727324 16.73591917 6.74233471 19.90969589 4 23.9375 C3.01 24.9584375 3.01 24.9584375 2 26 C2 26.66 2 27.32 2 28 C2.66 28.515625 3.32 29.03125 4 29.5625 C6.60519259 32.73757847 6.58040835 34.80521053 6.3828125 38.81640625 C5.59441301 43.3135013 3.00856738 45.28662307 -0.5625 47.8125 C-6.58670378 49.89358858 -12.47018723 49.85832933 -18.5 47.8125 C-21.34105786 45.75273305 -22.61952659 44.22110462 -24 41 C-24.1875 38.1875 -24.1875 38.1875 -24 36 C-21.36 36 -18.72 36 -16 36 C-15.7215625 36.9590625 -15.7215625 36.9590625 -15.4375 37.9375 C-14.07654304 40.37658879 -14.07654304 40.37658879 -10.625 40.8125 C-7.66766572 40.96546557 -5.73675433 40.98523156 -3 40 C-3 38.02 -3 36.04 -3 34 C-6.15244574 32.19754279 -8.85212322 31.64002328 -12.4375 31.1875 C-17.41998736 30.33715549 -19.9487254 29.23241315 -23 25 C-25.21210626 20.99714105 -25.47682812 17.52986713 -25 13 C-22.33957731 8.15423009 -19.35931831 3.78643944 -14 2 C-10.8997533 1.97023083 -7.81363719 2.06625342 -4.71484375 2.16015625 C-1.84991728 2.29274244 -1.84991728 2.29274244 0 0 Z " fill="#EB5257" transform="translate(1251,309)"/>
<path d="M0 0 C2.64 0 5.28 0 8 0 C8 1.32 8 2.64 8 4 C8.66 4 9.32 4 10 4 C10 3.34 10 2.68 10 2 C14.03413969 -0.01706984 18.637066 0.26698018 23 1 C27.25319182 3.51019074 30.42412719 6.27238157 32 11 C32.6184788 16.05385537 32.78597447 20.55738679 29.9375 24.9375 C26.42186139 29.14832138 22.26523914 30.7281713 16.875 31.375 C14 31 14 31 9 28 C9 32.95 9 37.9 9 43 C6.03 43 3.06 43 0 43 C0 28.81 0 14.62 0 0 Z " fill="#EB5459" transform="translate(928,311)"/>
<path d="M0 0 C2.64 0 5.28 0 8 0 C8 13.2 8 26.4 8 40 C5.36 40 2.72 40 0 40 C0 39.34 0 38.68 0 38 C-0.82177734 38.48533203 -0.82177734 38.48533203 -1.66015625 38.98046875 C-5.92093548 40.83700194 -10.44158929 40.43348928 -15 40 C-19.25300557 38.31651863 -21.18336455 36.17826153 -23 32 C-24.48638144 25.91726979 -24.28963581 21.51809878 -21 16 C-18.12606503 12.62312641 -16.68173338 11.25591595 -12.3046875 10.58984375 C-6.69138608 10.41770251 -4.67996966 10.49002276 0 14 C0 9.38 0 4.76 0 0 Z " fill="#EB5055" transform="translate(432,301)"/>
<path d="M0 0 C3.4375 1.5 3.4375 1.5 6 3 C6 2.01 6 1.02 6 0 C8.97 0 11.94 0 15 0 C15 9.9 15 19.8 15 30 C12.03 30 9.06 30 6 30 C6 29.34 6 28.68 6 28 C4.7934375 28.7734375 4.7934375 28.7734375 3.5625 29.5625 C-0.99591184 31.40185916 -4.30372624 31.38619887 -9 30 C-12.79316853 27.83362561 -15.3804018 25.06731675 -17 21 C-17.6773018 15.78635125 -17.63590295 11.34517932 -15.375 6.5625 C-10.65339967 1.46814175 -7.0756057 -0.88445071 0 0 Z " fill="#EC565B" transform="translate(823,311)"/>
<path d="M0 0 C3.4375 1.5 3.4375 1.5 6 3 C6 2.01 6 1.02 6 0 C8.97 0 11.94 0 15 0 C15 9.9 15 19.8 15 30 C12.36 30 9.72 30 7 30 C7 29.01 7 28.02 7 27 C6.401875 27.495 5.80375 27.99 5.1875 28.5 C0.46322682 30.72318738 -3.8732984 30.92280629 -9 30 C-13.03101802 27.75897949 -15.5366003 25.39019909 -17 21 C-18.13701038 11.15550503 -18.13701038 11.15550503 -15.80078125 6.7265625 C-11.23472293 1.27489589 -7.20578155 -0.62118806 0 0 Z " fill="#EB555A" transform="translate(981,311)"/>
<path d="M0 0 C3.4375 1.5 3.4375 1.5 6 3 C6 2.01 6 1.02 6 0 C8.64 0 11.28 0 14 0 C14 9.9 14 19.8 14 30 C11.36 30 8.72 30 6 30 C5.67 29.34 5.34 28.68 5 28 C4.01 28.66 3.02 29.32 2 30 C-3.22361682 30.70522927 -7.69784237 30.60457319 -12.5 28.375 C-16.5676451 24.51073716 -18.1479244 21.05798327 -18.4375 15.5 C-18.27130678 11.00522873 -16.96858056 8.449972 -14 5 C-9.13691505 0.71585374 -6.54615737 -0.43641049 0 0 Z " fill="#EB5358" transform="translate(650,311)"/>
<path d="M0 0 C2.53409304 1.13393269 4.66202311 2.47315795 7 4 C7 3.01 7 2.02 7 1 C9.31 1 11.62 1 14 1 C14 10.57 14 20.14 14 30 C11.69 30 9.38 30 7 30 C7 29.01 7 28.02 7 27 C6.5153125 27.30035156 6.030625 27.60070312 5.53125 27.91015625 C1.20768725 30.36294666 -2.07157607 31.6865371 -7.0390625 30.75390625 C-11.20428098 29.15253739 -14.99740037 26.00519926 -17 22 C-18.18127798 11.30868661 -18.18127798 11.30868661 -15.80078125 6.65625 C-11.28891107 1.29201139 -7.10378095 -0.7224184 0 0 Z " fill="#EB5156" transform="translate(1044,311)"/>
<path d="M0 0 C0.96808594 -0.01417969 1.93617188 -0.02835937 2.93359375 -0.04296875 C5.5625 0.1875 5.5625 0.1875 8.5625 2.1875 C8.8925 1.5275 9.2225 0.8675 9.5625 0.1875 C12.2025 0.1875 14.8425 0.1875 17.5625 0.1875 C17.5625 9.7575 17.5625 19.3275 17.5625 29.1875 C14.9225 29.1875 12.2825 29.1875 9.5625 29.1875 C9.2325 28.5275 8.9025 27.8675 8.5625 27.1875 C7.69625 27.6825 6.83 28.1775 5.9375 28.6875 C1.82970502 30.51318666 -0.97622918 31.11836524 -5.265625 29.49609375 C-8.36403683 27.94037857 -10.23617863 26.44726951 -12.375 23.6875 C-13.96138687 18.461755 -14.35454019 13.58865008 -13.4375 8.1875 C-10.14856871 2.27345841 -6.67654869 0.04433299 0 0 Z " fill="#EB5056" transform="translate(550.4375,311.8125)"/>
<path d="M0 0 C3.5 1.6875 3.5 1.6875 6 4 C6.78375 4.70125 7.5675 5.4025 8.375 6.125 C10.80069187 10.41660869 10.71464028 14.18558129 10 19 C8.90627657 22.82441041 7.32459151 25.13824838 3.9765625 27.31640625 C-0.71010392 29.61175312 -4.74013715 30.69469887 -10 30 C-14.93134195 28.06614041 -18.18300902 25.54378737 -21.25 21.25 C-22.62304723 17.13085831 -22.76224632 13.14381778 -21.3125 9.06640625 C-16.6961995 0.12232404 -9.46973208 -1.2877795 0 0 Z " fill="#EB5257" transform="translate(1283,312)"/>
<path d="M0 0 C4.4794723 2.08527159 7.22248707 4.35871625 9 9 C9.6458721 14.21481914 9.60289149 18.55830296 7.5625 23.4375 C3.58520638 27.41479362 -0.68599882 29.77652295 -6.375 30.16015625 C-12.53973247 29.73320687 -16.68435742 27.54720683 -20.875 22.9375 C-22.66815029 18.25538535 -22.98908507 13.92481944 -22 9 C-16.38102851 -0.20399237 -10.28521903 -0.9008951 0 0 Z " fill="#EB5055" transform="translate(1364,312)"/>
<path d="M0 0 C3.5 1.6875 3.5 1.6875 6 4 C6.78375 4.680625 7.5675 5.36125 8.375 6.0625 C10.89643328 10.62047554 10.71066275 14.91315087 10 20 C8.12884555 24.47449977 5.91897138 26.28814807 1.6875 28.375 C-3.63561575 30.4606142 -7.74994376 30.83825625 -13.1875 28.8125 C-16.80761046 26.47953993 -19.07772378 23.84455245 -21 20 C-21.52657873 14.71694786 -21.64191122 10.33137143 -19.3125 5.5 C-13.65163057 -0.61985884 -7.98246292 -0.97479194 0 0 Z " fill="#EB5156" transform="translate(736,312)"/>
<path d="M0 0 C4.48481469 2.08775856 7.11715865 4.39749892 9 9 C9 11.64 9 14.28 9 17 C1.74 17 -5.52 17 -13 17 C-12.01 18.32 -11.02 19.64 -10 21 C-6.35469432 21.24097574 -2.88998216 20.92913406 0.75 20.65234375 C1.8225 20.76707031 2.895 20.88179688 4 21 C5.9375 23.50390625 5.9375 23.50390625 7 26 C1.71862982 29.14634819 -2.79822749 31.19956915 -9 30 C-13.63459256 28.36915594 -17.56391835 26.44226653 -20 22 C-21.72666189 16.82001432 -21.90972877 11.20250122 -19.8125 6.125 C-13.94723108 -0.75152218 -8.68434319 -1.08144651 0 0 Z " fill="#EB5258" transform="translate(1214,312)"/>
<path d="M0 0 C2.97 0 5.94 0 9 0 C9 0.99 9 1.98 9 3 C9.680625 2.505 10.36125 2.01 11.0625 1.5 C14.70247525 -0.35871077 16.95462873 -0.43343264 21 0 C24.18459646 1.51992104 26.73579966 3.28295959 29 6 C29.98043964 8.94131891 30.11621202 10.82501665 30.09765625 13.88671875 C30.09443359 14.82451172 30.09121094 15.76230469 30.08789062 16.72851562 C30.07951172 17.70498047 30.07113281 18.68144531 30.0625 19.6875 C30.05798828 20.67556641 30.05347656 21.66363281 30.04882812 22.68164062 C30.0370432 25.12111958 30.01910783 27.56056741 30 30 C27.03 30 24.06 30 21 30 C21 23.4 21 16.8 21 10 C18.03 9.67 15.06 9.34 12 9 C10.28632943 12.42734115 9.74642947 13.57855174 9.5859375 17.109375 C9.52792969 18.24052734 9.52792969 18.24052734 9.46875 19.39453125 C9.42234375 20.56048828 9.42234375 20.56048828 9.375 21.75 C9.31699219 22.93916016 9.31699219 22.93916016 9.2578125 24.15234375 C9.163892 26.10119416 9.08087178 28.05056451 9 30 C6.03 30 3.06 30 0 30 C0 20.1 0 10.2 0 0 Z " fill="#EC5A5F" transform="translate(1158,311)"/>
<path d="M0 0 C2.97 0 5.94 0 9 0 C9 0.99 9 1.98 9 3 C9.66 2.505 10.32 2.01 11 1.5 C14.73661111 -0.36830555 17.94011562 -0.85805775 22 0 C25.80595238 2.10791209 28.39729475 4.95679078 30 9 C30.22705078 11.38183594 30.22705078 11.38183594 30.1953125 13.984375 C30.18886719 14.91894531 30.18242188 15.85351562 30.17578125 16.81640625 C30.15902344 17.78449219 30.14226563 18.75257813 30.125 19.75 C30.11597656 20.73355469 30.10695313 21.71710938 30.09765625 22.73046875 C30.07412925 25.15375026 30.03825937 27.57690631 30 30 C27.03 30 24.06 30 21 30 C20.95101562 28.65164063 20.90203125 27.30328125 20.8515625 25.9140625 C20.77653943 24.15102041 20.70099141 22.38800061 20.625 20.625 C20.5940625 19.73554688 20.563125 18.84609375 20.53125 17.9296875 C20.49257813 17.07890625 20.45390625 16.228125 20.4140625 15.3515625 C20.36693115 14.17327881 20.36693115 14.17327881 20.31884766 12.97119141 C20.1600535 10.76997061 20.1600535 10.76997061 18 9 C15 8.58333333 15 8.58333333 12 9 C9.9859044 12.0211434 9.73163404 12.80660017 9.5859375 16.23046875 C9.52792969 17.43413086 9.52792969 17.43413086 9.46875 18.66210938 C9.42234375 19.91217773 9.42234375 19.91217773 9.375 21.1875 C9.31699219 22.4549707 9.31699219 22.4549707 9.2578125 23.74804688 C9.16363721 25.83167524 9.08073325 27.91580753 9 30 C6.03 30 3.06 30 0 30 C0 20.1 0 10.2 0 0 Z " fill="#EC585E" transform="translate(751,311)"/>
<path d="M0 0 C2.97 0 5.94 0 9 0 C9.33 6.93 9.66 13.86 10 21 C16.61430493 22.73870411 16.61430493 22.73870411 20 20 C20.50621513 17.97723319 20.50621513 17.97723319 20.51171875 15.6484375 C20.54716797 14.79765625 20.58261719 13.946875 20.61914062 13.0703125 C20.64169922 12.18085938 20.66425781 11.29140625 20.6875 10.375 C20.72166016 9.4778125 20.75582031 8.580625 20.79101562 7.65625 C20.87362402 5.43762462 20.94272719 3.2194006 21 1 C23.64 1 26.28 1 29 1 C29 10.57 29 20.14 29 30 C26.69 30 24.38 30 22 30 C22 29.01 22 28.02 22 27 C21.401875 27.495 20.80375 27.99 20.1875 28.5 C15.49399592 30.7087078 11.09918781 30.82689532 6 30 C2.32967285 27.35736446 0.79465084 25.37182673 0 21 C-0.07911543 19.34010718 -0.10778885 17.6773713 -0.09765625 16.015625 C-0.09443359 15.08105469 -0.09121094 14.14648438 -0.08789062 13.18359375 C-0.07951172 12.21550781 -0.07113281 11.24742187 -0.0625 10.25 C-0.05798828 9.26644531 -0.05347656 8.28289062 -0.04882812 7.26953125 C-0.037065 4.84632806 -0.01913018 2.42315623 0 0 Z " fill="#EB5257" transform="translate(1105,311)"/>
<path d="M0 0 C7.92 0 15.84 0 24 0 C24 5.64481735 22.52024624 7.5282566 19.125 11.625 C18.21034961 12.76254839 17.2962672 13.90055375 16.3828125 15.0390625 C15.59648438 16.01617187 14.81015625 16.99328125 14 18 C13.34 18.99 12.68 19.98 12 21 C15.96 21.33 19.92 21.66 24 22 C24 24.64 24 27.28 24 30 C15.75 30 7.5 30 -1 30 C-1 24.37635171 -1 24.37635171 1.37109375 21.30078125 C1.86287109 20.64916016 2.35464844 19.99753906 2.86132812 19.32617188 C3.6415332 18.3294043 3.6415332 18.3294043 4.4375 17.3125 C5.45801948 15.97601444 6.47759578 14.63880799 7.49609375 13.30078125 C7.95169678 12.71466064 8.4072998 12.12854004 8.87670898 11.5246582 C10.07990091 9.98226671 10.07990091 9.98226671 11 8 C7.37 8 3.74 8 0 8 C0 5.36 0 2.72 0 0 Z " fill="#EB4F54" transform="translate(605,311)"/>
<path d="M0 0 C0 2.31 0 4.62 0 7 C2.31 7 4.62 7 7 7 C7 9.64 7 12.28 7 15 C4.69 15 2.38 15 0 15 C0.33 19.62 0.66 24.24 1 29 C2.98 29.33 4.96 29.66 7 30 C7.33 32.31 7.66 34.62 8 37 C-0.96793374 38.60203865 -0.96793374 38.60203865 -5 36.25 C-9.01723579 31.73060973 -9.25701039 28.62603427 -9.125 22.8125 C-9.11597656 22.06291016 -9.10695313 21.31332031 -9.09765625 20.54101562 C-9.07412578 18.69387346 -9.03825561 16.84689588 -9 15 C-10.65 15 -12.3 15 -14 15 C-14 12.36 -14 9.72 -14 7 C-12.35 7 -10.7 7 -9 7 C-9 5.02 -9 3.04 -9 1 C-5.846632 0.29925156 -3.27275026 0 0 0 Z " fill="#EC585D" transform="translate(1093,304)"/>
<path d="M0 0 C2.3671875 1.0234375 2.3671875 1.0234375 4 2 C3.42655063 4.86724686 3.1385485 5.8614515 1 8 C-1.82535942 8.34444968 -4.62549017 8.44261868 -7.46875 8.55859375 C-8.3040625 8.70425781 -9.139375 8.84992188 -10 9 C-12.36139302 11.89461901 -12.36139302 11.89461901 -11.8125 15.5625 C-11.35160238 19.25825752 -11.35160238 19.25825752 -8 21 C-5.83419507 20.87477996 -5.83419507 20.87477996 -3.5625 20.375 C-1.1640625 20.02734375 -1.1640625 20.02734375 1 20 C3.5625 21.9375 3.5625 21.9375 5 24 C4 27 4 27 0.875 28.6875 C-4.07780169 30.60177305 -8.17526256 30.67980415 -13.1875 28.8125 C-16.80761046 26.47953993 -19.07772378 23.84455245 -21 20 C-21.40288977 15.18856637 -21.61485588 10.60545701 -19.875 6.0625 C-14.02605432 -0.37134025 -8.37972433 -1.00369957 0 0 Z " fill="#EB5358" transform="translate(1318,312)"/>
<path d="M0 0 C0.474375 0.495 0.94875 0.99 1.4375 1.5 C0.625 3.4375 0.625 3.4375 -0.5625 5.5 C-3.40757488 6.44835829 -4.68315992 6.51427194 -7.5625 6.3125 C-10.85452903 6.27689672 -10.85452903 6.27689672 -13.625 8.0625 C-14.96661569 11.5507008 -14.48928615 13.92525344 -13.5625 17.5 C-10.16071896 19.76785402 -9.87244403 19.62069713 -6.125 18.875 C-3.7265625 18.52734375 -3.7265625 18.52734375 -1.5625 18.5 C1 20.4375 1 20.4375 2.4375 22.5 C1.4375 25.5 1.4375 25.5 -1.6875 27.1875 C-6.60148868 29.0867717 -10.69581869 29.17200527 -15.6875 27.375 C-19.97249586 24.58043748 -22.78256883 22.07248017 -24.26953125 17.16796875 C-25.22304427 11.36668862 -24.32652875 7.89072362 -20.984375 3.09375 C-16.213553 -2.25376477 -6.15903555 -3.6052891 0 0 Z " fill="#EB5257" transform="translate(693.5625,313.5)"/>
<path d="M0 0 C0 2.64 0 5.28 0 8 C2.31 8 4.62 8 7 8 C7 9.98 7 11.96 7 14 C4.69 14 2.38 14 0 14 C0.33 18.95 0.66 23.9 1 29 C2.98 29.33 4.96 29.66 7 30 C7.33 32.31 7.66 34.62 8 37 C0.03478327 38.44033331 0.03478327 38.44033331 -3.9375 36.75 C-6.27807685 34.764056 -7.8691796 33.14826554 -8.22705078 30.00708008 C-8.21134033 28.89949341 -8.21134033 28.89949341 -8.1953125 27.76953125 C-8.18564453 26.56586914 -8.18564453 26.56586914 -8.17578125 25.33789062 C-8.15902344 24.50451172 -8.14226563 23.67113281 -8.125 22.8125 C-8.11597656 21.96751953 -8.10695313 21.12253906 -8.09765625 20.25195312 C-8.07410703 18.16784757 -8.03823647 16.08388783 -8 14 C-9.65 14 -11.3 14 -13 14 C-13 12.02 -13 10.04 -13 8 C-11.35 8 -9.7 8 -8 8 C-8 5.69 -8 3.38 -8 1 C-5.10765685 0.17361624 -3.11257569 0 0 0 Z " fill="#EB4E54" transform="translate(525,304)"/>
<path d="M0 0 C2.64 0 5.28 0 8 0 C8.66 0.99 9.32 1.98 10 3 C10.66 2.34 11.32 1.68 12 1 C14.09375 0.76953125 14.09375 0.76953125 16.5 0.8125 C17.69109375 0.82216797 17.69109375 0.82216797 18.90625 0.83203125 C21 1 21 1 23 2 C22.125 6.75 22.125 6.75 21 9 C18.41682273 9.39465208 15.85811719 9.50806152 13.25 9.65625 C12.5075 9.7696875 11.765 9.883125 11 10 C9.88176185 12.23647631 9.80603939 13.64891529 9.68359375 16.1328125 C9.64169922 16.93847656 9.59980469 17.74414062 9.55664062 18.57421875 C9.49766602 19.83685547 9.49766602 19.83685547 9.4375 21.125 C9.39431641 21.97449219 9.35113281 22.82398438 9.30664062 23.69921875 C9.20045764 25.79928223 9.09971503 27.89961948 9 30 C6.03 30 3.06 30 0 30 C0 20.1 0 10.2 0 0 Z " fill="#EC575D" transform="translate(1002,311)"/>
<path d="M0 0 C2.97 0 5.94 0 9 0 C9 13.53 9 27.06 9 41 C6.03 41 3.06 41 0 41 C0 27.47 0 13.94 0 0 Z " fill="#EB4A4F" transform="translate(895,300)"/>
<path d="M0 0 C2.97 0 5.94 0 9 0 C9 13.53 9 27.06 9 41 C6.03 41 3.06 41 0 41 C0 27.47 0 13.94 0 0 Z " fill="#EB5156" transform="translate(575,300)"/>
<path d="M0 0 C2.97 0 5.94 0 9 0 C9 9.9 9 19.8 9 30 C6.03 30 3.06 30 0 30 C0 20.1 0 10.2 0 0 Z " fill="#EC5A5F" transform="translate(447,311)"/>
<path d="M0 0 C2.64 0 5.28 0 8 0 C9 1 9 1 9.11352539 3.77563477 C9.10828857 4.98533936 9.10305176 6.19504395 9.09765625 7.44140625 C9.09443359 8.74658203 9.09121094 10.05175781 9.08789062 11.39648438 C9.07953401 12.7851569 9.07106905 14.17382877 9.0625 15.5625 C9.05748666 16.95507656 9.05292347 18.34765481 9.04882812 19.74023438 C9.03699434 23.1601987 9.0205088 26.58007844 9 30 C6.03 30 3.06 30 0 30 C0 20.1 0 10.2 0 0 Z " fill="#EC595F" transform="translate(1328,311)"/>
<path d="M0 0 C2.64 0 5.28 0 8 0 C8 9.9 8 19.8 8 30 C5.36 30 2.72 30 0 30 C0 20.1 0 10.2 0 0 Z " fill="#EB4E54" transform="translate(498,311)"/>
<path d="M0 0 C2.64 0 5.28 0 8 0 C8 9.57 8 19.14 8 29 C5.36 29 2.72 29 0 29 C0 19.43 0 9.86 0 0 Z " fill="#EB4F54" transform="translate(880,312)"/>
<path d="M0 0 C2.64 0 5.28 0 8 0 C8 9.57 8 19.14 8 29 C5.36 29 2.72 29 0 29 C0 19.43 0 9.86 0 0 Z " fill="#EB4F54" transform="translate(701,312)"/>
<path d="M0 0 C2.64 0 5.28 0 8 0 C8 9.57 8 19.14 8 29 C5.36 29 2.72 29 0 29 C0 19.43 0 9.86 0 0 Z " fill="#EB4B51" transform="translate(591,312)"/>
<path d="M0 0 C4.19453461 0.5785565 5.85487959 1.31016437 8.625 4.5 C9.25 7.4375 9.25 7.4375 8.625 10.5 C6.13897551 13.86344489 4.71074477 15.30057749 0.5625 16.0625 C-2.375 15.5 -2.375 15.5 -4.75 13.9375 C-6.9835569 10.58716465 -6.86898209 8.4518567 -6.375 4.5 C-4.79781803 0.88175902 -3.93811566 0.58342454 0 0 Z " fill="#FEF8F9" transform="translate(647.375,318.5)"/>
<path d="M0 0 C2.4375 1.5625 2.4375 1.5625 4 4 C4.56288002 7.94016013 4.60396028 10.05782196 2.4375 13.4375 C-0.96719488 15.61999672 -3.03430012 15.63734462 -7 15 C-9.96135546 12.41830549 -10.86756104 10.81118865 -11.5 6.9375 C-11 4 -11 4 -9.4375 1.625 C-6.06489221 -0.62340519 -3.97487617 -0.56783945 0 0 Z " fill="#FDF5F6" transform="translate(983,319)"/>
<path d="M0 0 C2.875 1.5625 2.875 1.5625 5 4 C5.625 7.5 5.625 7.5 5 11 C2.41830549 13.96135546 0.81118865 14.86756104 -3.0625 15.5 C-6 15 -6 15 -8.375 13.4375 C-10.62340519 10.06489221 -10.56783945 7.97487617 -10 4 C-7.25657347 -0.1151398 -4.81370572 -0.78591114 0 0 Z " fill="#FDF6F6" transform="translate(1045,319)"/>
<path d="M0 0 C2.4375 1.625 2.4375 1.625 4 4 C4.48858462 7.90867693 4.20156781 10.69764829 2 14 C-1.12860495 15.56430248 -3.55602925 15.35627284 -7 15 C-9.5 12.9375 -9.5 12.9375 -11 10 C-10.93977486 6.50694211 -10.63658168 4.09633511 -8.875 1.0625 C-5.81547541 -0.6712306 -3.43182475 -0.42145216 0 0 Z " fill="#FDF5F6" transform="translate(825,319)"/>
<path d="M0 0 C5.21675868 0.64065457 5.21675868 0.64065457 7.5625 3.4375 C8.625 6.8125 8.625 6.8125 8.5625 10.4375 C6.13577076 13.89375074 4.65574021 15.21438975 0.5 16.0625 C-2.4375 15.4375 -2.4375 15.4375 -4.8125 13.3125 C-6.71039799 9.95468047 -7.00304202 8.23471069 -6.4375 4.4375 C-4.81913765 0.81998415 -3.97789946 0.50627811 0 0 Z " fill="#FDF5F6" transform="translate(551.4375,318.5625)"/>
<path d="M0 0 C2.9375 2.0625 2.9375 2.0625 5 5 C5.06641554 8.85210127 4.87229157 10.99848005 2.3125 13.9375 C-0.73602877 15.33817538 -2.67926952 15.4842732 -6 15 C-8.375 13.4375 -8.375 13.4375 -10 11 C-10.56783945 7.02512383 -10.62340519 4.93510779 -8.375 1.5625 C-5.24316508 -0.49791771 -3.68455227 -0.6767545 0 0 Z " fill="#FDF2F3" transform="translate(1280,319)"/>
<path d="M0 0 C2.9375 2.0625 2.9375 2.0625 5 5 C5 8.54361243 4.65850044 10.86591591 2.875 13.9375 C-0.22289358 15.69297303 -2.52844534 15.48723574 -6 15 C-8.5 12.9375 -8.5 12.9375 -10 10 C-9.93931504 6.48027215 -9.66225706 4.08052467 -7.8125 1.0625 C-4.99452602 -0.58941578 -3.20595185 -0.5129523 0 0 Z " fill="#FDF4F4" transform="translate(1360,319)"/>
<path d="M0 0 C2.40346379 2.40346379 2.32083747 3.13900195 2.375 6.4375 C2.26633214 10.66196305 2.26633214 10.66196305 0.375 13.0625 C-2.70053186 14.27652573 -4.71939399 14.47842171 -8 14 C-10.375 12.5 -10.375 12.5 -12 10 C-12.65009956 6.98037869 -12.45430809 5.18015664 -12 2 C-8.25721535 -1.74278465 -4.9129096 -1.2050533 0 0 Z " fill="#FDF3F4" transform="translate(949,320)"/>
<path d="M0 0 C2.66962826 4.00444239 2.70110902 7.29380572 2 12 C-0.16645496 14.7497313 -1.57032276 14.92838713 -5 15.5 C-8 15 -8 15 -10.4375 12.9375 C-12.47631034 9.10453656 -12.14831346 7.13392844 -11 3 C-8.63196252 -1.31818599 -4.34823762 -0.41411787 0 0 Z " fill="#FDF5F5" transform="translate(735,319)"/>
<path d="M0 0 C3.4375 0.875 3.4375 0.875 6.4375 2.875 C7.13260912 5.92768754 7.0384006 8.80872219 6.4375 11.875 C3.92425692 14.24462919 2.23808972 14.73831395 -1.125 15.3125 C-3.5625 14.875 -3.5625 14.875 -5.875 13.3125 C-8.20476201 9.94728821 -8.13539582 7.88527077 -7.5625 3.875 C-5.28656232 0.23349971 -4.32379992 -0.15171228 0 0 Z " fill="#FDF6F7" transform="translate(424.5625,319.125)"/>
<path d="M0 0 C2.68060724 2.17799338 2.93500217 3.61001305 3.5 7 C3 10 3 10 0.9375 12.4375 C-2.91296839 14.48562148 -4.85935777 14.22685696 -9 13 C-11.34572071 10.88128452 -11.89543972 9.5974873 -12.4375 6.5 C-12 4 -12 4 -10.5 1.6875 C-6.74064132 -0.85006711 -4.49187215 -0.57039646 0 0 Z " fill="#FDF2F2" transform="translate(1246,319)"/>
<path d="M0 0 C2.875 1.625 2.875 1.625 5 4 C5.625 7 5.625 7 5 10 C2.9375 12.4375 2.9375 12.4375 0 14 C-3.84949295 14 -6.04133185 13.86589381 -8.9375 11.25 C-10.23370853 8.50508782 -10.52487013 6.99925788 -10 4 C-7.15925051 -0.04260504 -4.83496939 -0.78938276 0 0 Z " fill="#FDF5F5" transform="translate(479,319)"/>
<path d="M0 0 C3.625 0.3125 3.625 0.3125 6.0625 1.3125 C8.17927667 4.02197414 8.19657551 6.05877417 8.00390625 9.43359375 C7.625 11.3125 7.625 11.3125 6.0625 13.375 C2.53393904 14.73213883 0.23724884 14.29765877 -3.375 13.3125 C-5.375 11.6875 -5.375 11.6875 -6.375 9.3125 C-5.9216795 0.54830366 -5.9216795 0.54830366 0 0 Z " fill="#FEFAFA" transform="translate(857.375,318.6875)"/>
<path d="M0 0 C3.3 0 6.6 0 10 0 C8.19438579 3.61122843 6.87463571 6.20305714 4 9 C0.25 9.3125 0.25 9.3125 -3 9 C-2.41321669 5.47930015 -1.64350079 3.28700157 0 0 Z " fill="#EC5E63" transform="translate(821,299)"/>
<path d="M0 0 C3.0625 0.1875 3.0625 0.1875 5.0625 2.1875 C5.3125 4.6875 5.3125 4.6875 5.0625 7.1875 C3.0625 9.1875 3.0625 9.1875 0.0625 9.5 C-0.9275 9.396875 -1.9175 9.29375 -2.9375 9.1875 C-4.9375 6.1875 -4.9375 6.1875 -4.625 3.5625 C-3.63731654 0.1505026 -3.65603948 0.23336422 0 0 Z " fill="#EC5E63" transform="translate(883.9375,299.8125)"/>
<path d="M0 0 C2.5625 0.25 2.5625 0.25 5.5625 2.25 C5.875 4.75 5.875 4.75 5.5625 7.25 C3.5625 9.25 3.5625 9.25 0.5625 9.4375 C-2.4375 9.25 -2.4375 9.25 -4.4375 8.25 C-4.5625 5.375 -4.5625 5.375 -4.4375 2.25 C-2.4375 0.25 -2.4375 0.25 0 0 Z " fill="#EC6064" transform="translate(704.4375,299.75)"/>
<path d="M0 0 C3.0625 0.1875 3.0625 0.1875 5.0625 2.1875 C5.3125 4.6875 5.3125 4.6875 5.0625 7.1875 C3.0625 9.1875 3.0625 9.1875 0.0625 9.5 C-0.9275 9.396875 -1.9175 9.29375 -2.9375 9.1875 C-4.9375 6.1875 -4.9375 6.1875 -4.625 3.5625 C-3.63731654 0.1505026 -3.65603948 0.23336422 0 0 Z " fill="#EC5B60" transform="translate(1331.9375,299.8125)"/>
<path d="M0 0 C3.0625 0.1875 3.0625 0.1875 5.0625 2.1875 C5.3125 4.6875 5.3125 4.6875 5.0625 7.1875 C3.0625 9.1875 3.0625 9.1875 0.0625 9.5 C-0.9275 9.396875 -1.9175 9.29375 -2.9375 9.1875 C-4.9375 6.1875 -4.9375 6.1875 -4.625 3.5625 C-3.63731654 0.1505026 -3.65603948 0.23336422 0 0 Z " fill="#EC5C61" transform="translate(594.9375,299.8125)"/>
<path d="M0 0 C3.0625 0.1875 3.0625 0.1875 5.0625 2.1875 C5.3125 4.6875 5.3125 4.6875 5.0625 7.1875 C3.0625 9.1875 3.0625 9.1875 0.0625 9.5 C-0.9275 9.396875 -1.9175 9.29375 -2.9375 9.1875 C-4.9375 6.1875 -4.9375 6.1875 -4.625 3.5625 C-3.63731654 0.1505026 -3.65603948 0.23336422 0 0 Z " fill="#EC5B61" transform="translate(501.9375,299.8125)"/>
<path d="M0 0 C7.92 0 15.84 0 24 0 C24 1.65 24 3.3 24 5 C23.01 5.495 23.01 5.495 22 6 C22 4.68 22 3.36 22 2 C15.07 2 8.14 2 1 2 C1 3.65 1 5.3 1 7 C4.63 7 8.26 7 12 7 C11.67 7.99 11.34 8.98 11 10 C11 9.34 11 8.68 11 8 C7.37 8 3.74 8 0 8 C0 5.36 0 2.72 0 0 Z " fill="#EF7A7F" transform="translate(605,311)"/>
<path d="M0 0 C2.1640625 -0.29296875 2.1640625 -0.29296875 4.625 -0.1875 C5.44226563 -0.16042969 6.25953125 -0.13335937 7.1015625 -0.10546875 C8.04128906 -0.05326172 8.04128906 -0.05326172 9 0 C6.84382567 6.13680387 6.84382567 6.13680387 4 8 C0.3125 8.1875 0.3125 8.1875 -3 8 C-2.45276317 4.62537285 -1.9451 2.91765 0 0 Z " fill="#EC555A" transform="translate(730,300)"/>
<path d="M0 0 C2.5 0.25 2.5 0.25 4.5 2.25 C4.75 4.75 4.75 4.75 4.5 7.25 C2.5 9.25 2.5 9.25 0 9.5 C-2.5 9.25 -2.5 9.25 -4.5 7.25 C-4.75 4.75 -4.75 4.75 -4.5 2.25 C-2.5 0.25 -2.5 0.25 0 0 Z " fill="#EB5459" transform="translate(451.5,299.75)"/>
<path d="M0 0 C2.64 0 5.28 0 8 0 C8.66 1.32 9.32 2.64 10 4 C6.04 4 2.08 4 -2 4 C-1.34 2.68 -0.68 1.36 0 0 Z " fill="#FDF5F5" transform="translate(1204,319)"/>
<path d="M0 0 C0.66 0 1.32 0 2 0 C1.68289063 0.48984375 1.36578125 0.9796875 1.0390625 1.484375 C-0.41373615 5.001677 -0.46584752 8.49665393 -0.625 12.25 C-0.66367187 12.99507813 -0.70234375 13.74015625 -0.7421875 14.5078125 C-0.83605108 16.3381524 -0.91909718 18.16904143 -1 20 C-1.33 20 -1.66 20 -2 20 C-2.05392397 17.22890693 -2.09363455 14.45886182 -2.125 11.6875 C-2.14175781 10.90181641 -2.15851562 10.11613281 -2.17578125 9.30664062 C-2.18544922 8.1706543 -2.18544922 8.1706543 -2.1953125 7.01171875 C-2.20578613 6.31522217 -2.21625977 5.61872559 -2.22705078 4.90112305 C-2 3 -2 3 0 0 Z " fill="#FCEBEC" transform="translate(1013,320)"/>
<path d="M0 0 C0 0.33 0 0.66 0 1 C-0.94875 1.28875 -1.8975 1.5775 -2.875 1.875 C-6.05211578 2.76825109 -6.05211578 2.76825109 -8 5 C-8.39764263 6.98821313 -8.73775349 8.98944339 -9 11 C-9.33 11 -9.66 11 -10 11 C-10.20145347 7.50813979 -10.34907805 4.80082611 -8.9375 1.5625 C-6.04961448 -0.76643994 -3.58423038 -0.27050795 0 0 Z " fill="#F9D5D7" transform="translate(651,319)"/>
<path d="M0 0 C1.670625 0.061875 1.670625 0.061875 3.375 0.125 C3.375 0.455 3.375 0.785 3.375 1.125 C2.42625 1.41375 1.4775 1.7025 0.5 2 C-2.91561694 3.2296221 -4.06799081 4.07287154 -5.75 7.25 C-6.03875 7.86875 -6.3275 8.4875 -6.625 9.125 C-5.63269231 0.19423077 -5.63269231 0.19423077 0 0 Z " fill="#F8CFD2" transform="translate(857.625,318.875)"/>
</svg>
