<?xml version="1.0" encoding="UTF-8"?>
<svg width="140px" height="40px" viewBox="0 0 140 40" version="1.1" xmlns="http://www.w3.org/2000/svg" xmlns:xlink="http://www.w3.org/1999/xlink">
    <defs>
        <linearGradient x1="0%" y1="0%" x2="100%" y2="100%" id="bizflowGradient">
            <stop stop-color="#7DAFF6" offset="0%"></stop>
            <stop stop-color="#8D9FFF" offset="50%"></stop>
            <stop stop-color="#C4ACFF" offset="100%"></stop>
        </linearGradient>
    </defs>
    <g id="bizflow-logo" stroke="none" stroke-width="1" fill="none" fill-rule="evenodd">
        <g id="logo-icon" transform="translate(2, 4)">
            <path d="M12,0 C18.627,0 24,5.373 24,12 C24,18.627 18.627,24 12,24 C5.373,24 0,18.627 0,12 C0,5.373 5.373,0 12,0 Z" id="circle" fill="url(#bizflowGradient)"></path>
            <path d="M7.5,9 L16.5,9 C17.328,9 18,9.672 18,10.5 L18,10.5 C18,11.328 17.328,12 16.5,12 L7.5,12 C6.672,12 6,11.328 6,10.5 L6,10.5 C6,9.672 6.672,9 7.5,9 Z" id="line-top" fill="#FFFFFF"></path>
            <path d="M7.5,12 L16.5,12 C17.328,12 18,12.672 18,13.5 L18,13.5 C18,14.328 17.328,15 16.5,15 L7.5,15 C6.672,15 6,14.328 6,13.5 L6,13.5 C6,12.672 6.672,12 7.5,12 Z" id="line-middle" fill="#FFFFFF"></path>
            <path d="M7.5,15 L16.5,15 C17.328,15 18,15.672 18,16.5 L18,16.5 C18,17.328 17.328,18 16.5,18 L7.5,18 C6.672,18 6,17.328 6,16.5 L6,16.5 C6,15.672 6.672,15 7.5,15 Z" id="line-bottom" fill="#FFFFFF"></path>
        </g>
        <g id="logo-text" transform="translate(30, 12)" fill="#FFFFFF" fill-rule="nonzero">
            <path d="M7.32,4.12 C9.244,4.12 10.68,4.936 10.68,7.28 L10.68,7.28 L10.68,7.32 C10.68,9.516 9.288,10.52 7.308,10.52 L7.308,10.52 L3.8,10.52 L3.8,16 L0.32,16 L0.32,4.12 L7.32,4.12 Z M7.16,7.76 C7.744,7.76 8.12,7.492 8.12,7.08 L8.12,7.08 L8.12,7.04 C8.12,6.548 7.736,6.32 7.152,6.32 L7.152,6.32 L3.8,6.32 L3.8,7.76 L7.16,7.76 Z" id="B"></path>
            <path d="M13.016,4.12 L16.376,4.12 L16.376,6.28 L13.016,6.28 L13.016,4.12 Z M13.016,7.8 L16.376,7.8 L16.376,16 L13.016,16 L13.016,7.8 Z" id="i"></path>
            <path d="M25.536,16 L23.792,13.184 C23.624,13.208 23.448,13.22 23.26,13.22 L23.26,13.22 L19.976,13.22 L19.976,16 L16.616,16 L16.616,4.12 L23.26,4.12 C26.304,4.12 28.116,5.524 28.116,8.56 L28.116,8.56 L28.116,8.6 C28.116,10.464 27.348,11.78 26.076,12.56 L26.076,12.56 L28.396,16 L25.536,16 Z M24.724,8.6 C24.724,7.816 24.156,7.36 23.216,7.36 L23.216,7.36 L19.976,7.36 L19.976,9.92 L23.236,9.92 C24.164,9.92 24.724,9.4 24.724,8.64 L24.724,8.64 L24.724,8.6 Z" id="z"></path>
            <path d="M35.28,16.2 C31.56,16.2 29.024,13.596 29.024,10.08 L29.024,10.08 L29.024,10.04 C29.024,6.524 31.624,3.92 35.32,3.92 C38.084,3.92 39.64,5.156 40.504,6.512 L40.504,6.512 L38.04,8.32 C37.424,7.348 36.572,6.84 35.344,6.84 C33.648,6.84 32.38,8.224 32.38,10 L32.38,10 L32.38,10.04 C32.38,11.816 33.648,13.24 35.344,13.24 C36.68,13.24 37.484,12.688 38.12,11.716 L38.12,11.716 L40.544,13.364 C39.6,14.904 38.08,16.2 35.28,16.2 Z" id="f"></path>
            <path d="M42.384,4.12 L45.744,4.12 L45.744,16 L42.384,16 L42.384,4.12 Z" id="l"></path>
            <path d="M49.064,4.12 L58.472,4.12 L58.472,6.96 L52.344,6.96 L52.344,8.88 L57.824,8.88 L57.824,11.72 L52.344,11.72 L52.344,13.16 L58.552,13.16 L58.552,16 L49.064,16 L49.064,4.12 Z" id="o"></path>
            <path d="M66.864,16.2 C63.104,16.2 60.584,13.596 60.584,10.08 L60.584,10.08 L60.584,10.04 C60.584,6.524 63.184,3.92 66.864,3.92 C70.544,3.92 73.104,6.484 73.104,10.04 L73.104,10.04 L73.104,10.08 C73.104,13.596 70.544,16.2 66.864,16.2 Z M66.904,13.24 C68.6,13.24 69.748,11.816 69.748,10.08 L69.748,10.08 L69.748,10.04 C69.748,8.304 68.56,6.84 66.864,6.84 C65.168,6.84 64.02,8.264 64.02,10 L64.02,10 L64.02,10.04 C64.02,11.776 65.208,13.24 66.904,13.24 Z" id="w"></path>
        </g>
    </g>
</svg>
